<svg width="48" height="48" viewBox="0 0 48 48" fill="none" xmlns="http://www.w3.org/2000/svg">
<rect width="48" height="48" rx="24" fill="#EAEFFA"/>
<mask id="mask0_506_30891" style="mask-type:alpha" maskUnits="userSpaceOnUse" x="0" y="0" width="48" height="48">
<circle cx="24" cy="24" r="24" fill="#EDF2FF"/>
</mask>
<g mask="url(#mask0_506_30891)">
<path d="M5.78502 5.65625C8.86313 17.005 12.3623 34.2902 5.0459 45.4191L24.0079 52.2212L43.3258 45.4191C41.2067 41.6019 36.3089 24.7424 42.9048 5.65625H5.78502Z" fill="url(#paint0_linear_506_30891)"/>
<path d="M-2.63682 22.0798C-2.77248 14.9178 -2.63682 7.35354 -0.76563 4.38302C-3.05784 -1.02005 0.637764 -9.50123 9.05813 -8.84164C11.9351 -8.45336 16.9312 -5.74949 22.6243 -6.97044H24.7575C26.7971 -6.29681 32.0832 -6.74122 38.9598 -8.61242C42.2017 -9.54801 52.4651 -6.97044 49.4946 4.37834C50.5752 6.40391 51.9132 12.6163 50.0279 22.0752C56.0317 36.748 48.3686 39.6684 46.9588 39.9502C45.549 40.232 41.0881 28.7425 41.9303 23.6937C40.9947 17.4814 38.9598 13.6267 40.1714 9.65979C37.3506 12.8876 30.2073 14.9132 24.4581 8.42948C18.1662 15.4465 10.0639 12.7519 8.71196 10.0527C8.34708 17.0463 6.55073 19.3713 6.55073 21.8038C7.46501 36.2143 2.01407 39.9291 -0.00679445 39.9502C-1.61574 39.9669 -6.94447 32.4784 -2.63682 22.0798Z" fill="url(#paint1_linear_506_30891)"/>
<path d="M23.5889 11.7851C29.9416 11.7196 33.1132 14.7228 32.4115 18.6711C33.7822 20.8182 33.8149 22.9842 32.5004 24.0461C33.9553 25.8798 33.5249 27.7884 32.5004 28.4574C34.133 29.7438 33.7869 41.5885 24.0801 41.3312C14.3732 41.0739 12.3196 33.4348 14.2095 29.2293C13.6107 28.2937 12.5769 25.9032 14.2937 24.0461C13.2646 22.9608 12.75 20.7294 14.7241 18.5868C14.406 15.2374 16.207 11.6307 23.5889 11.7851Z" fill="white"/>
<path d="M23.2012 15.4418V16.5551C23.2012 16.7417 23.1275 16.9206 22.996 17.053C22.8645 17.1853 22.6861 17.2603 22.4995 17.2615C20.0623 17.2943 18.6823 17.5375 17.1386 18.2486C17.0263 16.0546 17.8964 14.7962 22.4808 14.7354C22.5746 14.7342 22.6677 14.7515 22.7547 14.7864C22.8418 14.8213 22.9211 14.873 22.988 14.9387C23.055 15.0043 23.1083 15.0826 23.1449 15.1689C23.1815 15.2553 23.2006 15.348 23.2012 15.4418Z" fill="url(#paint2_linear_506_30891)"/>
<path d="M29.9183 17.8099C29.0389 17.1175 27.6542 17.2204 25.4836 17.2532C25.3895 17.2557 25.2959 17.2392 25.2082 17.2048C25.1206 17.1704 25.0408 17.1187 24.9736 17.0528C24.9064 16.9869 24.8531 16.9081 24.817 16.8212C24.7808 16.7342 24.7625 16.6409 24.7632 16.5468V15.4943C24.7629 15.3966 24.7828 15.2999 24.8218 15.2103C24.8608 15.1207 24.9179 15.0402 24.9895 14.9738C25.0612 14.9074 25.1458 14.8566 25.2381 14.8246C25.3304 14.7926 25.4283 14.7801 25.5257 14.7879C28.4822 15.0171 29.8154 15.9527 29.9183 17.8099Z" fill="url(#paint3_linear_506_30891)"/>
<path d="M30.9475 24.2794C29.7686 23.4326 27.8132 23.2081 25.4415 23.1333C25.2591 23.126 25.0865 23.0484 24.9601 22.9167C24.8336 22.785 24.763 22.6095 24.7632 22.4269V19.3862C24.7644 19.2008 24.8379 19.0232 24.9681 18.8913C25.0983 18.7594 25.2749 18.6835 25.4602 18.6798C26.9297 18.6515 28.3995 18.7093 29.8622 18.8529C30.6762 19.1149 31.6024 23.1987 30.9475 24.2794Z" fill="url(#paint4_linear_506_30891)"/>
<path d="M30.7837 28.03C29.3804 28.6662 27.6401 28.9282 25.5117 29.0404C25.4154 29.0462 25.319 29.0322 25.2284 28.9992C25.1378 28.9663 25.0549 28.9152 24.9847 28.849C24.9146 28.7829 24.8588 28.703 24.8207 28.6145C24.7826 28.5259 24.763 28.4305 24.7632 28.3341V25.2279C24.7631 25.0437 24.835 24.8668 24.9634 24.7349C25.0919 24.6029 25.2668 24.5264 25.4508 24.5215C27.6168 24.4841 29.7593 24.6197 31.0644 25.0922C31.7661 26.3412 31.4761 27.5201 30.7837 28.03Z" fill="url(#paint5_linear_506_30891)"/>
<path d="M23.2006 25.3088V28.4291C23.1994 28.6144 23.1259 28.792 22.9957 28.9239C22.8655 29.0559 22.6889 29.1318 22.5036 29.1354H21.2124C17.5262 29.1775 16.221 28.4103 15.4071 26.9695C15.3643 26.6591 15.3643 26.3443 15.4071 26.0339C16.8479 24.4715 19.7903 24.6305 22.4989 24.6305C22.6803 24.6327 22.854 24.7042 22.9845 24.8303C23.1149 24.9564 23.1922 25.1276 23.2006 25.3088Z" fill="url(#paint6_linear_506_30891)"/>
<path d="M24.107 41.3252C15.0411 41.3252 14.5124 34.2708 15.5369 30.2383C15.564 30.1333 15.6151 30.0359 15.6863 29.9539C15.7574 29.8719 15.8465 29.8075 15.9467 29.7658C16.0469 29.7241 16.1554 29.7062 16.2637 29.7135C16.372 29.7208 16.4771 29.7532 16.5708 29.808C18.0443 30.6407 20.2289 30.7857 22.5024 30.8091C22.6878 30.8127 22.8644 30.8886 22.9946 31.0206C23.1248 31.1525 23.1983 31.3301 23.1995 31.5154V36.7595C23.1995 38.9347 24.7619 39.613 24.7619 35.5292V31.4874C24.7604 31.3068 24.8287 31.1326 24.9524 31.001C25.0761 30.8694 25.2458 30.7906 25.4262 30.781C27.2312 30.7268 29.0226 30.4487 30.7591 29.953C30.8544 29.9228 30.955 29.9132 31.0542 29.9248C31.1535 29.9363 31.2492 29.9688 31.3349 30.0201C31.4207 30.0714 31.4946 30.1403 31.5518 30.2223C31.609 30.3043 31.6481 30.3974 31.6666 30.4956C32.4525 34.3409 31.9426 41.3252 24.107 41.3252Z" fill="url(#paint7_linear_506_30891)"/>
<path d="M23.1964 19.4936V22.4033C23.1965 22.5874 23.1246 22.7643 22.9962 22.8962C22.8677 23.0282 22.6928 23.1048 22.5087 23.1096C19.7534 23.1611 17.7465 23.4979 15.9595 24.3072C15.4917 23.4418 15.6835 20.9016 16.3759 19.966C17.9149 19.0304 20.2539 18.8761 22.4573 18.7872C22.5526 18.7834 22.6477 18.7989 22.7369 18.8326C22.8261 18.8664 22.9077 18.9177 22.9766 18.9836C23.0456 19.0495 23.1006 19.1286 23.1383 19.2163C23.1761 19.3039 23.1958 19.3982 23.1964 19.4936Z" fill="url(#paint8_linear_506_30891)"/>
</g>
<defs>
<linearGradient id="paint0_linear_506_30891" x1="33.7751" y1="9.52178" x2="51.1516" y2="32.0287" gradientUnits="userSpaceOnUse">
<stop stop-color="#BBD1FF"/>
<stop offset="1" stop-color="#DAE6FF"/>
</linearGradient>
<linearGradient id="paint1_linear_506_30891" x1="40.6567" y1="19.1549" x2="38.7655" y2="-7.24242" gradientUnits="userSpaceOnUse">
<stop stop-color="#9CBDFF"/>
<stop offset="1" stop-color="#C3D7FF"/>
</linearGradient>
<linearGradient id="paint2_linear_506_30891" x1="18.5172" y1="17.987" x2="18.4054" y2="15.2595" gradientUnits="userSpaceOnUse">
<stop stop-color="#BBD1FF"/>
<stop offset="1" stop-color="#DAE6FF"/>
</linearGradient>
<linearGradient id="paint3_linear_506_30891" x1="25.9415" y1="17.5846" x2="25.8439" y2="15.2369" gradientUnits="userSpaceOnUse">
<stop stop-color="#BBD1FF"/>
<stop offset="1" stop-color="#DAE6FF"/>
</linearGradient>
<linearGradient id="paint4_linear_506_30891" x1="26.2274" y1="23.8619" x2="25.9581" y2="19.5186" gradientUnits="userSpaceOnUse">
<stop stop-color="#BBD1FF"/>
<stop offset="1" stop-color="#DAE6FF"/>
</linearGradient>
<linearGradient id="paint5_linear_506_30891" x1="26.2958" y1="28.7046" x2="26.1278" y2="25.193" gradientUnits="userSpaceOnUse">
<stop stop-color="#BBD1FF"/>
<stop offset="1" stop-color="#DAE6FF"/>
</linearGradient>
<linearGradient id="paint6_linear_506_30891" x1="17.1637" y1="28.8011" x2="17.0207" y2="25.2989" gradientUnits="userSpaceOnUse">
<stop stop-color="#BBD1FF"/>
<stop offset="1" stop-color="#DAE6FF"/>
</linearGradient>
<linearGradient id="paint7_linear_506_30891" x1="18.9947" y1="40.4604" x2="18.5528" y2="31.451" gradientUnits="userSpaceOnUse">
<stop stop-color="#BBD1FF"/>
<stop offset="1" stop-color="#DAE6FF"/>
</linearGradient>
<linearGradient id="paint8_linear_506_30891" x1="17.4159" y1="23.8961" x2="17.1924" y2="19.6147" gradientUnits="userSpaceOnUse">
<stop stop-color="#BBD1FF"/>
<stop offset="1" stop-color="#DAE6FF"/>
</linearGradient>
</defs>
</svg>
