<svg width="48" height="48" viewBox="0 0 48 48" fill="none" xmlns="http://www.w3.org/2000/svg">
<rect width="48" height="48" rx="24" fill="#EAEFFA"/>
<mask id="mask0_506_30867" style="mask-type:alpha" maskUnits="userSpaceOnUse" x="0" y="0" width="48" height="48">
<circle cx="24" cy="24" r="24" fill="#EDF2FF"/>
</mask>
<g mask="url(#mask0_506_30867)">
<path d="M34.0405 -18C34.7102 -11.9954 35.3723 -7.77675 33.594 -5.55196C31.8157 -3.32717 23.3707 -3.77367 17.5894 6.45728C27.1506 16.465 58.4978 16.234 74.2791 6.45728C67.828 -3.77367 57.1583 -3.10392 56.2807 -6.45265C55.4031 -9.80138 57.1583 -18 57.1583 -18H34.0405Z" fill="url(#paint0_linear_506_30867)"/>
<path d="M14.7813 26.5747C19.8467 45.2506 25.605 73.6956 13.5649 92.0097H76.5596C73.0723 85.7279 65.0122 57.9835 75.8667 26.5747H14.7813Z" fill="url(#paint1_linear_506_30867)"/>
<path d="M0.918291 53.5935C0.695042 41.8075 0.918291 29.3594 3.99758 24.4711C0.22545 15.5796 6.30705 1.62271 20.1639 2.70816C24.8983 3.34712 33.12 7.79669 42.4887 5.78745H45.9991C49.3556 6.896 58.0546 6.16467 69.371 3.08538C74.7058 1.54573 91.5957 5.78745 86.7074 24.4634C88.4857 27.7967 90.6874 38.0199 87.585 53.5858C85.7422 55.0696 83.5685 56.0866 81.2485 56.5503C78.9285 57.0141 76.5309 56.9108 74.2593 56.2494C72.7197 46.0261 69.371 39.6828 71.3648 33.1547C66.7228 38.4664 54.9676 41.7998 45.5064 31.13C35.1523 42.6774 21.819 38.2432 19.5942 33.8013C18.9937 45.3102 16.0376 49.1362 16.0376 53.1393C13.3663 55.5873 4.70582 56.6728 0.918291 53.5935Z" fill="url(#paint2_linear_506_30867)"/>
<path d="M44.0756 36.6573C54.5298 36.5495 59.7492 41.4918 58.5945 47.9891C60.8501 51.5226 60.9039 55.0869 58.7407 56.8344C61.1349 59.8521 60.4267 62.9929 58.7407 64.0938C61.4274 66.2108 60.8578 85.7027 44.8839 85.2793C28.9101 84.8559 25.5306 72.2847 28.6407 65.364C27.6553 63.8243 25.954 59.8906 28.7792 56.8344C27.0856 55.0484 26.2388 51.3763 29.4875 47.8505C28.964 42.3386 31.9278 36.4033 44.0756 36.6573Z" fill="#C7DAFF"/>
<path d="M16.9225 25.4619C15.2043 20.6664 23.7111 9.63918 27.6381 9.36951C31.565 9.09984 41.9525 8.26484 43.1803 14.1326C44.408 20.0003 45.389 28.1716 44.5705 32.1711C43.752 36.1707 40.153 37.2039 35.9168 37.8829C30.1904 38.549 27.7349 39.4132 24.9545 36.5216C22.1741 33.63 18.5564 28.3535 16.9225 25.4619Z" fill="url(#paint3_linear_506_30867)"/>
<path opacity="0.52" d="M44.6187 31.9073C43.4503 33.5611 41.3853 35.1564 37.3834 35.8062C35.2403 36.274 29.3764 36.6834 28.0112 36.3325C26.646 35.9816 20.7946 29.2367 19.4419 25.6595C21.9411 25.2858 36.1494 21.0849 38.6798 15.2789C38.6798 14.3984 34.3062 20.9386 19.4419 23.8563C19.4419 23.3722 22.8534 22.4559 25.7837 19.4246C28.7141 16.3933 32.1006 13.7551 31.4789 12.9915C30.8572 12.228 29.0827 15.7467 24.2623 18.8398C22.7503 19.8567 20.4947 20.6202 19.4513 21.9686C19.7324 18.4596 24.2998 14.1092 25.6057 12.8193C26.9115 11.5295 27.5801 11.4125 31.9787 11.4125C35.006 11.4125 38.9048 10.688 41.6789 11.5392C42.4461 12.2068 42.9772 13.1215 43.1879 14.1384C44.3781 19.8795 45.3435 27.8201 44.6187 31.9073Z" fill="url(#paint4_linear_506_30867)"/>
<path d="M73.0645 25.4598C74.7827 20.6643 66.2759 9.6371 62.349 9.38043C58.4221 9.12376 48.0346 8.27576 46.8068 14.1435C45.579 20.0112 44.5981 28.1825 45.4166 32.1821C46.2351 36.1816 49.834 37.2018 54.0859 37.8808C59.8123 38.5469 62.2678 39.4111 65.0482 36.5195C67.8286 33.6279 71.4306 28.3515 73.0645 25.4598Z" fill="url(#paint5_linear_506_30867)"/>
<path opacity="0.52" d="M45.3657 31.9132C46.5341 33.5669 48.5991 35.1622 52.601 35.812C54.7441 36.2799 60.608 36.6892 61.9732 36.3383C63.3384 35.9874 69.1898 29.2425 70.5425 25.6653C68.0433 25.2917 53.835 21.0907 51.3045 15.2847C51.3045 14.4042 55.6782 20.9445 70.5425 23.8621C70.5425 23.378 67.131 22.4618 64.2007 19.4304C61.2703 16.3991 57.8838 13.7609 58.5055 12.9974C59.1272 12.2338 60.9017 15.7525 65.7221 18.8456C67.2435 19.8431 69.4991 20.6066 70.5425 21.9549C70.2613 18.4362 65.694 14.0955 64.3975 12.8057C63.101 11.5158 62.4231 11.3988 58.0244 11.3988C54.9972 11.3988 51.0984 10.6743 48.3398 11.5256C47.5726 12.1931 47.0416 13.1078 46.8309 14.1248C45.6031 19.8853 44.6409 27.8259 45.3657 31.9132Z" fill="url(#paint6_linear_506_30867)"/>
<path d="M43.4285 42.6733V44.5055C43.4285 44.8124 43.3071 45.1069 43.0908 45.3247C42.8744 45.5425 42.5807 45.6659 42.2738 45.6679C38.263 45.7218 35.992 46.1221 33.4516 47.2922C33.2668 43.6817 34.6987 41.6109 42.243 41.5108C42.3973 41.5088 42.5505 41.5373 42.6937 41.5947C42.837 41.6521 42.9674 41.7373 43.0776 41.8454C43.1878 41.9534 43.2756 42.0822 43.3358 42.2243C43.396 42.3664 43.4275 42.519 43.4285 42.6733Z" fill="url(#paint7_linear_506_30867)"/>
<path d="M54.4825 46.5778C53.0352 45.4385 50.7566 45.6078 47.1846 45.6617C47.0297 45.6659 46.8756 45.6388 46.7314 45.5821C46.5872 45.5255 46.4559 45.4404 46.3453 45.3319C46.2347 45.2234 46.147 45.0938 46.0875 44.9508C46.0281 44.8078 45.998 44.6542 45.9991 44.4993V42.7672C45.9985 42.6064 46.0314 42.4473 46.0955 42.2999C46.1596 42.1525 46.2536 42.02 46.3715 41.9108C46.4894 41.8015 46.6287 41.7179 46.7806 41.6652C46.9325 41.6126 47.0936 41.592 47.2539 41.6048C52.1191 41.982 54.3131 43.5216 54.4825 46.5778Z" fill="url(#paint8_linear_506_30867)"/>
<path d="M56.1761 57.216C54.2361 55.8226 51.0183 55.4531 47.1153 55.3299C46.815 55.318 46.5311 55.1903 46.323 54.9735C46.1149 54.7568 45.9988 54.4679 45.999 54.1675V49.1636C46.001 48.8586 46.122 48.5664 46.3362 48.3492C46.5505 48.1321 46.8411 48.0072 47.1461 48.0012C49.5642 47.9547 51.983 48.0498 54.3901 48.286C55.7296 48.7171 57.2538 55.4377 56.1761 57.216Z" fill="url(#paint9_linear_506_30867)"/>
</g>
<defs>
<linearGradient id="paint0_linear_506_30867" x1="30.547" y1="11.5029" x2="29.561" y2="-13.2468" gradientUnits="userSpaceOnUse">
<stop stop-color="#BBD1FF"/>
<stop offset="1" stop-color="#DAE6FF"/>
</linearGradient>
<linearGradient id="paint1_linear_506_30867" x1="60.8425" y1="32.9359" x2="89.4379" y2="69.974" gradientUnits="userSpaceOnUse">
<stop stop-color="#BBD1FF"/>
<stop offset="1" stop-color="#DAE6FF"/>
</linearGradient>
<linearGradient id="paint2_linear_506_30867" x1="72.1627" y1="48.7801" x2="69.0504" y2="5.3399" gradientUnits="userSpaceOnUse">
<stop stop-color="#9CBDFF"/>
<stop offset="1" stop-color="#C3D7FF"/>
</linearGradient>
<linearGradient id="paint3_linear_506_30867" x1="40.4406" y1="16.2631" x2="36.4482" y2="44.5539" gradientUnits="userSpaceOnUse">
<stop offset="0.0104167" stop-color="#7DA7FF"/>
<stop offset="1" stop-color="#2669F3"/>
</linearGradient>
<linearGradient id="paint4_linear_506_30867" x1="40.8702" y1="17.2444" x2="37.5724" y2="41.6908" gradientUnits="userSpaceOnUse">
<stop offset="0.0104167" stop-color="#94B7FF"/>
<stop offset="1" stop-color="#3072FA"/>
</linearGradient>
<linearGradient id="paint5_linear_506_30867" x1="68.86" y1="16.2752" x2="64.8726" y2="44.5487" gradientUnits="userSpaceOnUse">
<stop offset="0.0104167" stop-color="#7DA7FF"/>
<stop offset="1" stop-color="#2669F3"/>
</linearGradient>
<linearGradient id="paint6_linear_506_30867" x1="48.7671" y1="14.3733" x2="62.8444" y2="35.0743" gradientUnits="userSpaceOnUse">
<stop offset="0.0104167" stop-color="#94B7FF"/>
<stop offset="1" stop-color="#3072FA"/>
</linearGradient>
<linearGradient id="paint7_linear_506_30867" x1="35.7204" y1="46.8617" x2="35.5364" y2="42.3732" gradientUnits="userSpaceOnUse">
<stop stop-color="#BBD1FF"/>
<stop offset="1" stop-color="#DAE6FF"/>
</linearGradient>
<linearGradient id="paint8_linear_506_30867" x1="47.9381" y1="46.2072" x2="47.7775" y2="42.3437" gradientUnits="userSpaceOnUse">
<stop stop-color="#BBD1FF"/>
<stop offset="1" stop-color="#DAE6FF"/>
</linearGradient>
<linearGradient id="paint9_linear_506_30867" x1="48.4086" y1="56.5289" x2="47.9654" y2="49.3816" gradientUnits="userSpaceOnUse">
<stop stop-color="#BBD1FF"/>
<stop offset="1" stop-color="#DAE6FF"/>
</linearGradient>
</defs>
</svg>
