<svg width="48" height="48" viewBox="0 0 48 48" fill="none" xmlns="http://www.w3.org/2000/svg">
<rect width="48" height="48" rx="24" fill="#EAEFFA"/>
<mask id="mask0_506_30910" style="mask-type:alpha" maskUnits="userSpaceOnUse" x="0" y="0" width="48" height="48">
<circle cx="24" cy="24" r="24" fill="#EDF2FF"/>
</mask>
<g mask="url(#mask0_506_30910)">
<mask id="mask1_506_30910" style="mask-type:alpha" maskUnits="userSpaceOnUse" x="-1" y="5" width="43" height="44">
<path d="M40.5434 41.9799L40.8588 41.6898L40.5687 41.3743L40.494 41.2931L40.4195 41.212L40.3451 41.1312L40.2709 41.0505L40.1969 40.97L40.1231 40.8897L40.0494 40.8096L39.9758 40.7296L39.9025 40.6499L39.8293 40.5703L39.7563 40.4909L39.6834 40.4116L39.6107 40.3326L39.5382 40.2537L39.4658 40.175L39.3936 40.0965L39.3216 40.0182L39.2497 39.94L39.178 39.862L39.1064 39.7842L39.035 39.7065L38.9637 39.6291L38.8927 39.5517L38.8217 39.4746L38.7509 39.3976L38.6803 39.3208L38.6098 39.2442L38.5395 39.1677L38.4693 39.0914L38.3993 39.0152L38.3294 38.9393L38.2597 38.8634L38.1901 38.7878L38.1207 38.7123L38.0514 38.6369L37.9822 38.5618L37.9132 38.4867L37.8444 38.4119L37.7757 38.3372L37.7071 38.2626L37.6387 38.1882L37.5704 38.114L37.5023 38.0399L37.4343 37.9659L37.3665 37.8921L37.2988 37.8185L37.2312 37.745L37.1637 37.6717L37.0964 37.5985L37.0293 37.5255L36.9622 37.4526L36.8953 37.3798L36.8286 37.3072L36.7619 37.2348L36.6954 37.1625L36.6291 37.0903L36.5628 37.0183L36.4967 36.9464L36.4307 36.8746L36.3649 36.803L36.2992 36.7316L36.2336 36.6602L36.1681 36.589L36.1028 36.518L36.0375 36.447L35.9724 36.3763L35.9075 36.3056L35.8426 36.2351L35.7779 36.1647L35.7133 36.0944L35.6488 36.0243L35.5844 35.9543L35.5202 35.8844L35.456 35.8147L35.392 35.7451L35.3281 35.6756L35.2643 35.6062L35.2006 35.537L35.1371 35.4679L35.0736 35.3989L35.0103 35.33L34.9471 35.2613L34.884 35.1927L34.821 35.1242L34.7581 35.0558L34.6953 34.9875L34.6326 34.9193L34.5701 34.8513L34.5076 34.7834L34.4453 34.7156L34.383 34.6479L34.3209 34.5803L34.2588 34.5129L34.1969 34.4455L34.1351 34.3783L34.0733 34.3111L34.0117 34.2441L33.9501 34.1772L33.8887 34.1104L33.8274 34.0437L33.7661 33.9771L33.705 33.9106L33.6439 33.8442L33.583 33.778L33.5221 33.7118L33.4614 33.6457L33.4007 33.5797L33.3401 33.5138L33.2796 33.4481L33.2192 33.3824L33.1589 33.3168L33.0987 33.2513L33.0386 33.1859L32.9785 33.1207L32.9186 33.0555L32.8587 32.9904L32.7989 32.9253L32.7392 32.8604L32.6796 32.7956L32.6201 32.7309L32.5606 32.6662L32.5013 32.6017L32.442 32.5372L32.3828 32.4728L32.3236 32.4085L32.2646 32.3443L32.2056 32.2802L32.1467 32.2161L32.0879 32.1522L32.0292 32.0883L31.9705 32.0245L31.9119 31.9608L31.8534 31.8972L31.7949 31.8336L31.7366 31.7701L31.6783 31.7067L31.62 31.6434L31.5619 31.5801L31.5038 31.517L31.4457 31.4539L31.3878 31.3908L31.3299 31.3279L31.272 31.265L31.2143 31.2022L31.1566 31.1395L31.099 31.0768L31.0414 31.0142L30.9839 30.9516L30.9264 30.8892L30.869 30.8268L30.8117 30.7644L30.7544 30.7021L30.6972 30.6399L30.6401 30.5778L30.583 30.5157L30.5259 30.4537L30.4689 30.3917L30.412 30.3298L30.3551 30.2679L30.2983 30.2062L30.2415 30.1444L30.1848 30.0827L30.1282 30.0211L30.0715 29.9596L30.015 29.898L29.9584 29.8366L29.902 29.7752L29.8455 29.7138L29.7892 29.6525L29.7328 29.5912L29.6765 29.53L29.6203 29.4689L29.5641 29.4078L29.5079 29.3467L29.4518 29.2857L29.3957 29.2247L29.3397 29.1637L29.2837 29.1029L29.2277 29.042L29.1718 28.9812L29.1159 28.9204L29.0601 28.8597L29.0043 28.799L28.9485 28.7384L28.8928 28.6777L28.8371 28.6172L28.7814 28.5566L28.7257 28.4961L28.6701 28.4356L28.6145 28.3752L28.559 28.3148L28.5035 28.2544L28.448 28.1941L28.3925 28.1337L28.3371 28.0735L28.2816 28.0132L28.2262 27.953L28.1709 27.8928L28.1155 27.8326L28.0602 27.7724L28.0049 27.7123L27.9497 27.6522L27.8944 27.5921L27.8392 27.532L27.7839 27.472L27.7287 27.412L27.6736 27.352L27.6184 27.292L27.5633 27.232L27.5081 27.1721L27.453 27.1121L27.3979 27.0522L27.3428 26.9923L27.2877 26.9324L27.2327 26.8725L27.1776 26.8127L27.1226 26.7528L27.0675 26.693L27.0125 26.6331L26.9575 26.5733L26.9025 26.5135L26.8475 26.4537L26.7925 26.3939L26.7375 26.3341L26.6825 26.2743L26.6275 26.2145L26.5725 26.1547L26.5176 26.0949L26.4626 26.0351L26.4076 25.9753L26.3526 25.9155L26.2976 25.8558L26.2426 25.796L26.1877 25.7362L26.1327 25.6764L26.0777 25.6166L26.0227 25.5568L25.9677 25.497L25.9127 25.4371L25.8576 25.3773L25.8026 25.3175L25.7476 25.2576L25.6925 25.1978L25.6375 25.1379L25.5824 25.078L25.5274 25.0181L25.4723 24.9582L25.4172 24.8983L25.362 24.8384L25.3069 24.7784L25.2518 24.7185L25.1966 24.6585L25.1414 24.5985L25.0862 24.5385L25.031 24.4784L24.9758 24.4184L24.9205 24.3583L24.8653 24.2982L24.81 24.238L24.7546 24.1779L24.6993 24.1177L24.6439 24.0575L24.5885 23.9973L24.5331 23.937L24.4777 23.8767L24.4222 23.8164L24.3667 23.7561L24.3112 23.6957L24.2557 23.6353L24.2001 23.5749L24.1445 23.5144L24.0888 23.4539L24.0331 23.3933L23.9774 23.3328L23.9217 23.2721L23.8659 23.2115L23.8101 23.1508L23.7543 23.0901L23.6984 23.0293L23.6425 22.9685L23.5865 22.9076L23.5305 22.8468L23.4745 22.7858L23.4184 22.7248L23.3623 22.6638L23.3061 22.6028L23.2499 22.5416L23.1937 22.4805L23.1374 22.4193L23.0811 22.358L23.0247 22.2967L22.9682 22.2353L22.9118 22.1739L22.8553 22.1125L22.7987 22.051L22.7421 21.9894L22.6854 21.9278L22.6287 21.8661L22.5719 21.8044L22.5151 21.7426L22.4582 21.6807L22.4013 21.6188L22.3443 21.5569L22.2873 21.4948L22.2302 21.4328L22.173 21.3706L22.1158 21.3084L22.0585 21.2461L22.0012 21.1838L21.9438 21.1214L21.8864 21.0589L21.8289 20.9964L21.7713 20.9338L21.7137 20.8711L21.656 20.8084L21.5982 20.7456L21.5404 20.6827L21.4825 20.6197L21.4245 20.5567L21.3665 20.4936L21.3084 20.4304L21.2503 20.3672L21.192 20.3039L21.1337 20.2405L21.0754 20.177L21.0169 20.1134L20.9584 20.0498L20.8998 19.9861L20.8411 19.9223L20.7824 19.8584L20.7236 19.7945L20.6647 19.7304L20.6057 19.6663L20.5467 19.6021L20.4875 19.5378L20.4283 19.4734L20.3691 19.409L20.3097 19.3444L20.2502 19.2798L20.1907 19.215L20.1311 19.1502L20.0714 19.0853L20.0116 19.0203L19.9518 18.9552L19.8918 18.89L19.8318 18.8247L19.7716 18.7593L19.7114 18.6938L19.6511 18.6283L19.5907 18.5626L19.5302 18.4968L19.4697 18.4309L19.409 18.365L19.3482 18.2989L19.2874 18.2327L19.2264 18.1665L19.1654 18.1001L19.1042 18.0336L19.043 17.967L18.9817 17.9003L18.9202 17.8335L18.8587 17.7666L18.7971 17.6996L18.7354 17.6324L18.6735 17.5652L18.6116 17.4979L18.5495 17.4304L18.4874 17.3628L18.4252 17.2951L18.3628 17.2273L18.3004 17.1594L18.2378 17.0914L18.1751 17.0233L18.1124 16.955L18.0495 16.8866L17.9865 16.8181L17.9234 16.7495L17.8601 16.6807L17.7968 16.6119L17.7334 16.5429L17.6698 16.4738L17.6062 16.4045L17.5424 16.3352L17.4785 16.2657L17.4145 16.1961L17.3503 16.1264L17.2861 16.0565L17.2217 15.9865L17.1572 15.9164L17.0926 15.8461L17.0279 15.7757L16.9631 15.7052L16.8981 15.6346L16.833 15.5638L16.7678 15.4929L16.7024 15.4218L16.637 15.3506L16.5714 15.2793L16.5057 15.2078L16.4398 15.1362L16.3738 15.0645L16.3077 14.9926L16.2415 14.9206L16.1751 14.8484L16.1086 14.7761L16.042 14.7037L15.9752 14.6311L15.9084 14.5583L15.8413 14.4854L15.7742 14.4124L15.7069 14.3392L15.6394 14.2659L15.5719 14.1924L15.5041 14.1188L15.4363 14.045L15.3683 13.9711L15.3002 13.897L15.2319 13.8228L15.1635 13.7484L15.0949 13.6738L15.0262 13.5991L14.9574 13.5243L14.8884 13.4492L14.8193 13.3741L14.75 13.2987L14.6806 13.2232L14.611 13.1476L14.5413 13.0718L14.4714 12.9958L14.4014 12.9196L14.3312 12.8433L14.2609 12.7669L14.1904 12.6902L14.1198 12.6134L14.049 12.5365L13.9781 12.4593L13.907 12.382L13.8357 12.3045L13.7643 12.2269L13.6928 12.1491L13.621 12.0711L13.5492 11.9929L13.4771 11.9146L13.4049 11.8361L13.3326 11.7574L13.26 11.6785L13.1873 11.5995L13.1145 11.5203L13.0415 11.4409L12.9683 11.3613L12.895 11.2815L12.8214 11.2016L12.7478 11.1215L12.6739 11.0412L12.5999 10.9607L12.5257 10.88L12.4514 10.7992L12.3768 10.7181L12.3021 10.6369L12.2273 10.5555L12.1522 10.4739L12.077 10.3921L12.0016 10.3101L11.926 10.2279L11.8503 10.1455L11.7744 10.063L11.6983 9.98022L11.622 9.89727L11.5455 9.81413L11.4689 9.73079L11.3921 9.64726L11.3151 9.56352L11.2379 9.47959L11.1605 9.39546L11.083 9.31113L11.0052 9.2266L10.9273 9.14187L10.8492 9.05693L10.7709 8.97179L10.6924 8.88645L10.6137 8.8009L10.5349 8.71515L10.4558 8.62919L10.3766 8.54302L10.2972 8.45665L10.2175 8.37006L10.1377 8.28327L10.0577 8.19626L9.9775 8.10905L9.8971 8.02162L9.8165 7.93398L9.73571 7.84612L9.65472 7.75805L9.57353 7.66977L9.49214 7.58127L9.41056 7.49255L9.32877 7.40361L9.24678 7.31445L9.16459 7.22508L9.08219 7.13548L8.9996 7.04567L8.9168 6.95563L8.83379 6.86537L8.75058 6.77488L8.66716 6.68417L8.58354 6.59323L8.4997 6.50207L8.41566 6.41068L8.33141 6.31907L8.24695 6.22722L8.16227 6.13515L8.07739 6.04285L7.78729 5.72739L7.47183 6.01749C-2.45891 15.1499 -3.10605 30.6037 6.0264 40.5345C15.1589 50.4652 30.6126 51.1123 40.5434 41.9799Z" fill="#F7F9FF" stroke="black" stroke-width="0.857143"/>
</mask>
<g mask="url(#mask1_506_30910)">
<path d="M20.9901 35.2052C21.7094 33.3547 21.2639 31.9835 20.3045 32.1553V30.9214H19.6094V32.1553C18.65 31.9835 18.2044 33.3547 18.9245 35.2052C17.3096 32.2236 16.3884 31.535 16.4912 32.7036C16.5939 33.8722 18.1361 38.1869 17.9989 41.5796C17.8616 44.9723 18.2741 48.0919 18.1677 48.0222C17.1731 48.1939 18.2741 51.9632 19.8817 51.2094H20.0285C21.6434 51.9632 22.7363 48.1939 21.7425 48.0222C21.6397 48.0912 22.0507 44.9723 21.9135 41.5796C21.7762 38.1869 23.3184 33.8722 23.4219 32.7036C23.5254 31.535 22.5983 32.2236 20.9901 35.2052Z" fill="url(#paint0_linear_506_30910)"/>
<path d="M20.129 48.6031V30.7705H19.7884V48.5907C19.0617 49.266 19.4052 50.5432 19.8816 51.2068H20.0284C20.4982 50.5461 20.8432 49.2784 20.129 48.6031Z" fill="url(#paint1_linear_506_30910)"/>
<path d="M26.3875 46.9716C27.4917 46.7069 28.0475 45.0765 27.6289 43.3301C27.2102 41.5837 25.9757 40.3825 24.8715 40.6472C23.7672 40.9119 23.2114 42.5422 23.6301 44.2887C24.0487 46.0351 25.2832 47.2363 26.3875 46.9716Z" fill="url(#paint2_linear_506_30910)"/>
<path d="M31.2028 21.6255C32.8573 18.0214 31.252 16.5115 30.4842 16.0299C28.6799 14.8973 25.6601 15.4155 24.2698 17.0972C24.2369 17.1372 24.2121 17.1832 24.1969 17.2328C24.1818 17.2823 24.1765 17.3343 24.1814 17.3859C24.1864 17.4374 24.2014 17.4875 24.2257 17.5333C24.25 17.579 24.2831 17.6195 24.3231 17.6525C24.363 17.6855 24.4091 17.7102 24.4586 17.7254C24.5081 17.7406 24.5602 17.7458 24.6117 17.7409C24.6633 17.736 24.7134 17.7209 24.7591 17.6966C24.8049 17.6723 24.8454 17.6392 24.8784 17.5993C26.0212 16.2178 28.5911 15.7708 30.0665 16.6979C31.3327 17.4936 31.4847 19.1268 30.4864 21.2981C27.9518 26.821 25.8377 34.9467 26.8654 40.3947C25.9493 39.3986 24.0496 39.566 24.0981 40.5467C24.1495 41.6007 24.6633 41.3181 25.5661 41.3049C26.469 41.2917 27.2493 42.7187 27.3278 43.6186C27.4064 44.5185 26.364 46.0475 27.559 46.0732C28.7247 46.0982 28.9603 42.4838 27.8049 40.9687C26.4441 35.7299 28.6014 27.2929 31.2028 21.6255Z" fill="url(#paint3_linear_506_30910)"/>
<path d="M16.017 44.2871C16.4357 42.5407 15.8799 40.9103 14.7757 40.6456C13.6714 40.3809 12.4369 41.5821 12.0183 43.3285C11.5996 45.075 12.1554 46.7053 13.2596 46.97C14.3639 47.2347 15.5984 46.0335 16.017 44.2871Z" fill="url(#paint4_linear_506_30910)"/>
<path d="M8.44584 21.6255C6.79132 18.0214 8.39666 16.5115 9.16446 16.0299C10.9687 14.8973 13.9885 15.4155 15.3788 17.0972C15.4141 17.1368 15.4411 17.183 15.4582 17.2332C15.4752 17.2835 15.4819 17.3366 15.4779 17.3895C15.474 17.4424 15.4593 17.4939 15.435 17.541C15.4106 17.5881 15.377 17.6298 15.3361 17.6636C15.2952 17.6974 15.248 17.7226 15.1971 17.7377C15.1463 17.7528 15.0929 17.7575 15.0402 17.7515C14.9875 17.7455 14.9366 17.7289 14.8905 17.7028C14.8443 17.6766 14.804 17.6414 14.7717 17.5993C13.6289 16.2178 11.059 15.7708 9.58359 16.6979C8.31591 17.4936 8.16617 19.1268 9.16226 21.2981C11.6969 26.821 13.8109 34.9467 12.7832 40.3947C13.6993 39.3986 15.599 39.566 15.5506 40.5467C15.4992 41.6007 14.9853 41.3181 14.0862 41.3049C13.187 41.2917 12.4008 42.7172 12.3274 43.6171C12.254 44.5171 13.2912 46.046 12.0962 46.0717C10.9305 46.0967 10.6949 42.4823 11.8503 40.9673C13.2083 35.7299 11.0473 27.2929 8.44584 21.6255Z" fill="url(#paint5_linear_506_30910)"/>
<path d="M20.0467 15.5664C19.7406 15.5661 19.4353 15.5976 19.1358 15.6604C12.8561 16.9765 12.7497 20.5197 13.6841 22.6263C14.6442 24.7859 18.5852 26.6364 18.5852 26.6364H21.5089C21.5089 26.6364 25.4499 24.7859 26.4093 22.6263C27.3459 20.5197 27.238 16.9743 20.9584 15.6604C20.6585 15.5976 20.353 15.5661 20.0467 15.5664Z" fill="url(#paint6_linear_506_30910)"/>
<path d="M23.1367 27.5608C22.9656 26.5155 21.6466 26.1213 20.0354 26.3445H19.8761C18.2656 26.1243 16.9458 26.5155 16.7748 27.5608C16.6038 28.606 17.3569 30.8507 19.5678 31.1935H20.3437C22.5546 30.8507 23.3084 28.606 23.1367 27.5608Z" fill="url(#paint7_linear_506_30910)"/>
</g>
<mask id="mask2_506_30910" style="mask-type:alpha" maskUnits="userSpaceOnUse" x="7" y="-1" width="42" height="43">
<path d="M40.2524 41.6655C50.0089 32.6933 50.6447 17.5106 41.6724 7.75412C32.7002 -2.0024 17.5175 -2.63819 7.76102 6.33405C22.2661 22.107 27.4879 27.7853 40.2524 41.6655Z" fill="#F7F9FF"/>
</mask>
<g mask="url(#mask2_506_30910)">
<path d="M39.9013 15.7437C40.2189 14.5931 39.0801 13.2749 37.3576 12.7995C35.6352 12.3241 33.9815 12.8715 33.6639 14.0221C33.3463 15.1727 34.4852 16.4909 36.2076 16.9663C37.93 17.4417 39.5838 16.8943 39.9013 15.7437Z" fill="url(#paint8_linear_506_30910)"/>
<path d="M14.8982 16.7727C16.6206 16.2973 17.7594 14.9792 17.4419 13.8286C17.1243 12.678 15.4705 12.1306 13.7481 12.606C12.0257 13.0814 10.8868 14.3996 11.2044 15.5502C11.522 16.7008 13.1758 17.2482 14.8982 16.7727Z" fill="url(#paint9_linear_506_30910)"/>
<path d="M37.5981 5.41788C34.3759 4.74698 32.7385 5.47128 31.5298 4.93502C30.3211 4.39876 28.5769 2.57178 25.7308 2.57178H25.6302C22.7841 2.57178 21.0383 4.39799 19.8304 4.93502C18.6225 5.47205 16.9843 4.74698 13.7621 5.41788C10.5399 6.08878 8.28814 8.98905 8.61082 11.0559C8.9335 13.1228 10.7852 14.8151 10.6227 15.9697C10.4602 17.1242 11.3741 17.4198 11.5088 16.9091C12.4219 18.1472 13.5207 18.1983 14.1668 17.5003C14.813 16.8023 12.8243 16.3728 12.3406 15.5657C11.857 14.7586 12.6919 13.8486 13.7644 13.1506C14.837 12.4527 13.8186 11.9125 12.825 12.5316C11.8315 13.1506 10.3008 12.1826 10.4626 10.4369C10.6243 8.69113 12.7724 6.87034 17.5244 7.51183C19.3592 8.10303 20.3613 9.71412 20.4649 11.8978C20.5686 14.0816 21.2883 19.9525 22.4343 21.8143C23.5803 23.6761 23.6152 23.2846 23.472 25.0001C23.3288 26.7157 23.0077 27.3092 23.7947 27.3092H27.5647C28.3517 27.3092 28.029 26.7188 27.8866 25.0001C27.7443 23.2815 27.7791 23.6754 28.9251 21.8143C30.0711 19.9533 30.7885 14.0816 30.8976 11.9002C31.0067 9.71876 32.0072 8.10845 33.8381 7.51416C38.5909 6.87034 40.7382 8.69578 40.8999 10.4407C41.0617 12.1857 39.5303 13.1491 38.5367 12.5355C37.5431 11.9218 36.5248 12.4581 37.5973 13.1545C38.6698 13.851 39.5032 14.7656 39.0203 15.5712C38.5375 16.3767 36.5503 16.8093 37.1941 17.5057C37.8379 18.2021 38.9399 18.1503 39.8522 16.9145C39.9868 17.4252 40.8999 17.1296 40.7382 15.9751C40.5765 14.8205 42.4298 13.129 42.7501 11.0613C43.0705 8.9937 40.8226 6.08878 37.5981 5.41788Z" fill="url(#paint10_linear_506_30910)"/>
<path d="M27.571 27.3095C27.571 27.3095 27.4813 26.8452 27.2847 26.719C27.2847 26.719 27.5347 26.0922 27.034 25.7904C27.034 25.7904 27.3203 25.094 26.9976 24.7164C26.9976 24.7164 27.3025 24.3937 27.034 23.7878C27.3025 23.3939 27.1771 23.233 26.7291 22.8213C26.7291 22.8213 28.3224 21.8153 28.0717 21.2822C27.821 20.749 27.3559 21.5321 26.4792 21.5685C25.6024 21.6049 25.9058 16.6455 26.1031 15.5536C26.9071 15.1798 27.6677 14.0431 28.2102 13.0433C28.7338 12.0734 29.0339 10.9987 29.0885 9.89776V9.85753C29.1659 8.49561 30.8102 7.60184 32.7254 7.26214C34.6406 6.92243 35.6079 6.27707 34.2112 6.11611C32.8144 5.95516 28.8772 7.50899 25.9243 7.50899H25.2968C22.3431 7.50899 18.4051 5.95206 17.0092 6.11611C15.6132 6.28016 16.5797 6.92166 18.4949 7.26214C20.4101 7.60262 22.0545 8.50025 22.1319 9.85753V9.89776C22.1876 10.9972 22.4882 12.0703 23.0117 13.0387C23.5534 14.0385 24.3148 15.1752 25.1188 15.549C25.3161 16.6408 25.6202 21.5994 24.7435 21.5639C23.8668 21.5283 23.4009 20.7405 23.1502 21.2775C22.8995 21.8146 24.4928 22.8167 24.4928 22.8167C24.0455 23.2283 23.9201 23.3893 24.1887 23.7832C23.9201 24.3914 24.2243 24.7117 24.2243 24.7117C23.9016 25.0878 24.1887 25.7858 24.1887 25.7858C23.6872 26.0899 23.9379 26.7144 23.9379 26.7144C23.7406 26.839 23.6516 27.3048 23.6516 27.3048C24.8363 27.7165 27.1903 27.6538 27.571 27.3095Z" fill="url(#paint11_linear_506_30910)"/>
</g>
</g>
<defs>
<linearGradient id="paint0_linear_506_30910" x1="18.0711" y1="49.7907" x2="14.911" y2="34.5934" gradientUnits="userSpaceOnUse">
<stop stop-color="#BBD1FF"/>
<stop offset="1" stop-color="#DAE6FF"/>
</linearGradient>
<linearGradient id="paint1_linear_506_30910" x1="20.354" y1="35.7058" x2="13.1599" y2="38.7436" gradientUnits="userSpaceOnUse">
<stop offset="0.0104167" stop-color="#7DA7FF"/>
<stop offset="1" stop-color="#2669F3"/>
</linearGradient>
<linearGradient id="paint2_linear_506_30910" x1="25.1892" y1="46.7608" x2="23.4806" y2="42.0341" gradientUnits="userSpaceOnUse">
<stop stop-color="#BBD1FF"/>
<stop offset="1" stop-color="#DAE6FF"/>
</linearGradient>
<linearGradient id="paint3_linear_506_30910" x1="30.6932" y1="22.8271" x2="18.2359" y2="46.3298" gradientUnits="userSpaceOnUse">
<stop offset="0.0104167" stop-color="#7DA7FF"/>
<stop offset="1" stop-color="#2669F3"/>
</linearGradient>
<linearGradient id="paint4_linear_506_30910" x1="15.3078" y1="45.9323" x2="12.171" y2="45.3274" gradientUnits="userSpaceOnUse">
<stop stop-color="#BBD1FF"/>
<stop offset="1" stop-color="#DAE6FF"/>
</linearGradient>
<linearGradient id="paint5_linear_506_30910" x1="14.3206" y1="22.8267" x2="1.86425" y2="46.3288" gradientUnits="userSpaceOnUse">
<stop offset="0.0104167" stop-color="#7DA7FF"/>
<stop offset="1" stop-color="#2669F3"/>
</linearGradient>
<linearGradient id="paint6_linear_506_30910" x1="16.3605" y1="25.812" x2="15.8651" y2="17.232" gradientUnits="userSpaceOnUse">
<stop stop-color="#BBD1FF"/>
<stop offset="1" stop-color="#DAE6FF"/>
</linearGradient>
<linearGradient id="paint7_linear_506_30910" x1="22.1523" y1="27.4698" x2="21.6576" y2="32.241" gradientUnits="userSpaceOnUse">
<stop offset="0.0104167" stop-color="#7DA7FF"/>
<stop offset="1" stop-color="#2669F3"/>
</linearGradient>
<linearGradient id="paint8_linear_506_30910" x1="35.5644" y1="13.0097" x2="41.1207" y2="15.8268" gradientUnits="userSpaceOnUse">
<stop offset="0.0104167" stop-color="#7DA7FF"/>
<stop offset="1" stop-color="#2669F3"/>
</linearGradient>
<linearGradient id="paint9_linear_506_30910" x1="16.1637" y1="13.0222" x2="16.9171" y2="17.1834" gradientUnits="userSpaceOnUse">
<stop offset="0.0104167" stop-color="#7DA7FF"/>
<stop offset="1" stop-color="#2669F3"/>
</linearGradient>
<linearGradient id="paint10_linear_506_30910" x1="16.3973" y1="25.4671" x2="15.4141" y2="6.28033" gradientUnits="userSpaceOnUse">
<stop stop-color="#BBD1FF"/>
<stop offset="1" stop-color="#DAE6FF"/>
</linearGradient>
<linearGradient id="paint11_linear_506_30910" x1="31.9594" y1="11.2931" x2="28.7251" y2="31.8923" gradientUnits="userSpaceOnUse">
<stop offset="0.0104167" stop-color="#7DA7FF"/>
<stop offset="1" stop-color="#2669F3"/>
</linearGradient>
</defs>
</svg>
