<svg width="52" height="52" viewBox="0 0 52 52" fill="none" xmlns="http://www.w3.org/2000/svg">
<rect x="1" y="1" width="50" height="50" rx="25" fill="#EAEFFA"/>
<circle cx="26" cy="26" r="24" fill="#F7F9FF"/>
<mask id="mask0_506_30833" style="mask-type:alpha" maskUnits="userSpaceOnUse" x="2" y="2" width="48" height="48">
<circle cx="26" cy="26" r="24" fill="#EDF2FF"/>
</mask>
<g mask="url(#mask0_506_30833)">
<path d="M36.5568 46.2122C37.0972 35.2407 46.5733 33.4961 46.5721 21.67C46.5021 10.1784 31.1155 2.72291 18.1451 8.02683C12.9708 10.1784 9.21194 17.6695 9.17634 20.804C9.17634 22.2588 9.51586 23.1692 9.2361 23.9157C8.95635 24.6621 6.84546 27.5805 5.79383 29.1102C4.74221 30.64 6.19948 31.4284 7.20914 31.5721C7.90218 31.7387 8.71474 31.4284 9.02501 32.1698C9.45482 33.2926 8.33198 34.0098 8.49984 35.0131C8.66769 36.0164 9.87954 35.9693 9.87954 35.9693C8.98941 36.4233 8.68422 36.8302 8.80375 37.4037C8.92328 38.1667 9.92659 38.1209 9.94821 38.6753C9.99653 39.4879 9.1598 40.0856 9.39887 41.4246C9.63793 42.7636 11.1677 43.8623 15.4454 43.4795C17.3821 43.2354 20.1796 43.0332 20.5878 46.2122C20.4292 50.428 16.8622 53.0035 20.0006 52.9994C21.8252 52.9971 35.0704 56.0043 36.5568 55.9994C38.5547 58.1388 36.666 49.4431 36.5568 46.2122Z" fill="url(#paint0_linear_506_30833)"/>
<path d="M28.8028 22.2845C26.0319 24.501 25.1074 28.443 25.3541 30.6594C25.6555 33.5981 27.2018 33.8626 27.9406 35.4013C28.3221 36.3537 28.3437 37.2057 28.8028 38.5384C29.3481 40.1831 29.6355 41.9023 29.6547 43.635C32.5566 43.5956 34.4386 43.635 34.4386 43.635C34.2033 36.8128 32.5566 35.2843 32.9126 31.5203C33.2687 27.7563 38.7468 25.6391 35.3401 22.9343C31.9335 20.2296 28.8028 22.2845 28.8028 22.2845Z" fill="url(#paint1_linear_506_30833)"/>
<path d="M11.127 21.2233C10.5115 20.7859 10.4123 19.7126 11.2071 19.0972C10.5509 18.4804 10.5115 17.5865 11.2071 17.1491C11.127 15.9576 11.3266 15.3408 11.8633 15.0229C11.834 13.8861 12.3592 13.3139 13.3536 13.3698C13.4528 12.2571 13.8101 11.5018 15.261 11.5412C15.659 10.6511 16.6127 9.95171 17.4075 10.2098C18.0827 9.25613 18.9576 8.8187 20.2686 8.87846C20.4929 8.64622 20.7749 8.47778 21.0857 8.39041C21.3966 8.30304 21.725 8.29988 22.0375 8.38126C22.4952 7.88533 23.3091 7.50766 24.4828 8.16254C25.158 7.42755 26.2313 7.44789 27.1252 8.00359C27.9009 7.59794 29.2323 7.56742 29.5502 7.88533C30.921 7.9044 31.4576 8.10405 31.8556 8.8187C32.3325 8.52114 33.4642 8.59998 35.7302 10.4286C37.3604 10.6829 38.3536 11.1839 38.1145 12.0181C39.0492 12.177 39.5858 12.6348 39.5464 13.1117C40.7379 13.1308 41.2147 13.469 41.2351 15.0191C42.0692 14.8398 43.3612 15.2976 43.3218 18.0405C44.395 19.1137 47.0883 22.2928 45.1796 24.555C45.3449 25.3319 44.7791 26.016 44.3556 26.133C44.7791 26.9113 44.1585 27.7531 44.053 28.2579C43.9474 28.7627 43.894 29.7711 42.8322 30.4871C41.7704 31.203 42.0082 32.2139 40.8142 33.1422C39.6201 34.0705 39.3531 34.2866 38.5036 34.3108C37.6542 34.335 36.8582 35.3192 35.982 35.2938C35.1059 35.2683 32.2117 35.0814 32.5296 31.9748C32.8475 28.8683 32.4507 28.3368 33.0077 26.3988C32.185 26.5845 31.4144 26.2716 31.2274 25.763C31.1486 26.6124 28.8381 26.4802 29.5286 24.7279C28.6524 24.9136 27.0591 25.0725 27.0591 25.0725C26.8734 26.3734 26.6204 28.6572 24.0924 28.5771C23.1578 28.6063 21.3228 27.1465 19.5425 27.0105C17.7623 26.8744 15.7201 27.0906 14.4179 26.1343C13.1158 25.1781 10.7531 22.3373 11.127 21.2233Z" fill="url(#paint2_linear_506_30833)"/>
<path d="M38.3873 24.0201C39.9794 24.0429 41.8029 26.0343 42.1246 28.4262C42.1246 28.8649 42.0089 29.2566 42.1246 29.811C42.2403 30.3654 41.733 30.1798 41.4786 31.0101C41.2243 31.8405 40.6254 32.3021 40.1409 32.3708C39.6564 32.4394 39.2177 33.4783 38.3873 33.5712C37.557 33.664 37.2569 34.4473 36.5422 34.4015C35.8276 34.3558 35.5033 34.0557 34.5343 34.1243C33.5654 34.193 33.4967 33.3868 33.7497 32.7408C34.0028 32.0948 33.1521 32.0707 33.6226 31.1017C34.0931 30.1327 35.1104 29.9572 34.9489 29.2121C34.7874 28.4669 33.4039 28.519 33.6582 26.534C33.9125 24.549 36.1722 24.7118 36.6567 24.4816C37.1411 24.2515 37.4184 23.9501 38.3873 24.0201Z" fill="url(#paint3_linear_506_30833)"/>
<path d="M14.0015 13.4463C14.569 14.5825 16.7513 13.7619 17.5812 13.2973C18.1915 12.9779 18.8481 12.6964 19.567 12.6787C20.447 12.6497 20.9498 13.2582 20.6422 14.1407C20.8534 12.2306 18.6687 13.1092 17.7496 13.6357C16.8355 14.1028 15.7505 14.4601 14.7338 14.1634C14.4006 14.0611 14.06 13.82 14.0015 13.4463Z" fill="url(#paint4_linear_506_30833)"/>
<path d="M29.5471 7.99902C28.4743 8.25783 27.4064 8.82594 27.2623 10.0644C27.1818 10.8939 27.2513 11.9758 28.0483 12.4139C28.3918 12.5826 28.7666 12.6722 29.1468 12.6765C30.7762 12.7649 32.6411 12.1639 34.1509 13.1108C34.4572 13.314 34.7013 13.6019 34.9698 13.8506C35.8498 14.6826 36.7786 15.5095 37.8905 15.9842C38.6301 16.3174 39.4512 16.4056 40.2412 16.2367C39.4503 16.4816 38.604 16.4559 37.8283 16.1634C36.3637 15.6408 35.2286 14.5222 34.0838 13.4946C33.6852 13.2209 33.2281 13.0519 32.7522 13.0022C31.5451 12.8532 30.3649 13.107 29.1297 13.0376C28.495 12.9946 27.7872 12.8191 27.3917 12.2573C26.9548 11.6261 26.9304 10.7739 27.0426 10.0316C27.2452 8.73757 28.4035 8.15052 29.5471 7.99902Z" fill="url(#paint5_linear_506_30833)"/>
<path d="M27.1592 25.0613C25.6506 24.9994 23.599 25.6471 22.6116 24.0703C21.4484 22.0705 22.7983 21.1173 23.5697 19.4458C24.0212 18.4586 23.8516 17.3362 23.4281 16.3604C24.0078 17.2883 24.2592 18.5066 23.8333 19.5569C23.4928 20.5669 22.6335 21.385 22.531 22.4404C22.4871 22.9454 22.6653 23.4504 22.9045 23.8809C23.2841 24.5816 24.0627 24.8303 24.7999 24.8909C25.5823 24.9654 26.3793 24.9401 27.1592 25.0664V25.0613Z" fill="url(#paint6_linear_506_30833)"/>
</g>
<rect x="1" y="1" width="50" height="50" rx="25" stroke="white" stroke-width="2"/>
<defs>
<linearGradient id="paint0_linear_506_30833" x1="11.8115" y1="44.2704" x2="10.5752" y2="7.37653" gradientUnits="userSpaceOnUse">
<stop stop-color="#CBDCFF"/>
<stop offset="1" stop-color="#E6EEFF"/>
</linearGradient>
<linearGradient id="paint1_linear_506_30833" x1="27.0434" y1="42.5466" x2="17.7811" y2="38.2669" gradientUnits="userSpaceOnUse">
<stop stop-color="#88AFFF"/>
<stop offset="1" stop-color="#ECF2FF"/>
</linearGradient>
<linearGradient id="paint2_linear_506_30833" x1="40.3089" y1="14.2863" x2="37.4442" y2="41.1881" gradientUnits="userSpaceOnUse">
<stop offset="0.0104167" stop-color="#7DA7FF"/>
<stop offset="1" stop-color="#2669F3"/>
</linearGradient>
<linearGradient id="paint3_linear_506_30833" x1="34.822" y1="33.8915" x2="40.1426" y2="18.7138" gradientUnits="userSpaceOnUse">
<stop stop-color="#88AFFF"/>
<stop offset="1" stop-color="#ECF2FF"/>
</linearGradient>
<linearGradient id="paint4_linear_506_30833" x1="15.0457" y1="14.1933" x2="15.2257" y2="11.5919" gradientUnits="userSpaceOnUse">
<stop stop-color="#88AFFF"/>
<stop offset="1" stop-color="#ECF2FF"/>
</linearGradient>
<linearGradient id="paint5_linear_506_30833" x1="29.0421" y1="15.9893" x2="31.5104" y2="2.66588" gradientUnits="userSpaceOnUse">
<stop stop-color="#88AFFF"/>
<stop offset="1" stop-color="#ECF2FF"/>
</linearGradient>
<linearGradient id="paint6_linear_506_30833" x1="22.9336" y1="24.7093" x2="28.7818" y2="13.3104" gradientUnits="userSpaceOnUse">
<stop stop-color="#88AFFF"/>
<stop offset="1" stop-color="#ECF2FF"/>
</linearGradient>
</defs>
</svg>
