<svg width="48" height="48" viewBox="0 0 48 48" fill="none" xmlns="http://www.w3.org/2000/svg">
<rect width="48" height="48" rx="24" fill="#EAEFFA"/>
<mask id="mask0_506_30935" style="mask-type:alpha" maskUnits="userSpaceOnUse" x="0" y="0" width="48" height="48">
<circle cx="24" cy="24" r="24" fill="#EDF2FF"/>
</mask>
<g mask="url(#mask0_506_30935)">
<path d="M10.392 44.0869H19.2449C19.7859 39.1357 20.1494 35.0636 20.8426 33.8935C21.6879 32.1799 24.7069 29.6814 25.3795 28.1417C26.0522 26.602 26.057 25.9933 27.0834 24.7604C29.908 20.8284 31.1217 20.8284 31.0287 19.2489C31.0057 18.2937 28.9045 18.15 26.7332 20.215C24.562 22.28 23.1624 24.5684 22.718 24.4066C22.2736 24.2447 22.0417 22.6157 22.6479 19.4264C23.2541 16.2371 24.312 13.7181 24.539 9.49509C24.7141 5.99304 24.0318 5.24553 23.1298 5.3518C22.2277 5.45807 21.6939 8.00853 21.2399 11.2389C20.7858 14.4692 19.903 17.1126 19.5021 17.0354C19.1012 16.9581 19.3946 11.7883 19.4756 10.2426C19.4212 6.36619 20.3028 2.57432 18.187 2.57432C16.3756 2.54775 16.6944 7.85637 16.4807 9.85254C16.3732 11.5432 16.267 16.7141 15.732 16.6864C15.197 16.6586 15.0074 13.9898 14.7164 10.6073C14.4254 7.22479 14.4809 4.0162 13.2226 4.0959C11.9643 4.1756 11.8592 6.20679 11.9643 10.9382C12.0693 15.6696 12.2058 18.3541 12.0174 18.4543C11.829 18.5545 11.189 16.9786 10.6516 13.5309C10.1142 10.0832 10.6347 8.39858 9.27977 8.21744C7.90793 8.18484 7.6326 10.6435 8.14221 15.963C8.65181 21.2825 9.10829 25.6914 9.34981 27.2154C9.59133 29.2466 10.8726 32.8912 10.8992 34.2195C10.9672 37.5166 10.7977 40.8142 10.392 44.0869Z" fill="url(#paint0_linear_506_30935)"/>
<path d="M15.5827 44.0879C15.7035 41.1582 15.4028 39.982 15.0333 38.3771C14.6637 36.7722 14.8715 36.3242 15.3497 36.172C15.8279 36.0199 16.7601 36.23 17.3193 35.881C18.0897 35.4608 18.8119 34.5164 19.2901 34.6323C19.7683 34.7483 20.2694 35.2857 19.5316 37.3724C18.7937 39.4591 18.6307 40.7211 18.2588 44.0879H15.5827Z" fill="url(#paint1_linear_506_30935)"/>
<path d="M13.0333 44.0853C13.299 41.4866 13.4692 39.8116 13.5755 39.4783C13.683 38.7984 14.6008 37.3904 14.573 36.8699C14.544 36.5294 14.0332 36.2456 13.5707 36.3216C13.1082 36.3977 12.8039 36.5294 12.7471 36.4352C12.5865 36.2733 12.5056 35.6973 12.1518 35.7251C11.7979 35.7529 11.5745 36.1417 11.6784 37.3711C11.7822 38.6004 11.8426 38.7646 11.7907 39.3527C11.7388 39.9408 11.1748 44.0853 11.1748 44.0853H13.0333Z" fill="url(#paint2_linear_506_30935)"/>
<path d="M13.6323 35.2912C13.642 35.6281 13.8871 35.8467 14.9607 35.8467C16.0342 35.8467 16.1683 35.7464 16.3446 34.7453C16.3808 34.2901 16.062 34.0993 15.4341 33.8167C14.8061 33.5341 14.3774 34.0812 14.0598 34.4809C13.7422 34.8806 13.6504 35.0279 13.6323 35.2912Z" fill="url(#paint3_linear_506_30935)"/>
<path d="M16.4344 34.5379C16.4344 35.0837 16.6264 35.539 17.0902 35.5487C17.5539 35.5583 19.2022 34.4618 19.2385 33.5452C19.2385 33.2264 19.1382 33.3037 18.997 32.9716C18.8557 32.6395 18.5791 32.3074 18.1323 32.334C17.5285 32.3799 17.5128 33.1987 17.2314 33.5537C16.9501 33.9087 16.3873 34.108 16.4344 34.5379Z" fill="url(#paint4_linear_506_30935)"/>
<path d="M12.9564 35.0089C13.2752 35.0089 14.1954 34.3157 14.164 33.7385C14.164 33.4885 13.5903 33.2337 13.4177 32.9874C13.245 32.741 13.0083 32.0044 12.6255 32.0684C12.2427 32.1324 11.7149 32.6963 11.7524 33.4245C11.7898 34.1527 12.3646 34.9992 12.9564 35.0089Z" fill="url(#paint5_linear_506_30935)"/>
<path d="M17.5366 31.3886C17.5366 30.9055 17.7854 30.0723 18.4846 30.0723C18.9676 30.0723 19.1524 30.4345 19.2792 30.4225C19.406 30.4104 19.4881 30.2293 19.7188 30.2377C19.9494 30.2462 20.3226 31.0202 20.5749 31.1398C20.8273 31.2593 20.9892 31.2328 20.9988 31.5637C21.0085 31.8945 20.7959 32.6505 20.2163 32.7338C19.6366 32.8171 19.1935 32.927 19.1017 32.6505C19.0099 32.374 18.8903 32.2182 18.5776 32.2447C18.2648 32.2713 17.6055 32.2447 17.5366 31.3886Z" fill="url(#paint6_linear_506_30935)"/>
<path d="M16.4109 33.9847C16.784 33.9618 17.5762 32.4946 17.604 31.9511C17.604 31.6758 17.4349 31.8775 17.3769 31.2616C17.319 30.6457 17.4289 30.4875 17.1354 30.2388C16.842 29.99 16.7514 29.8982 16.3541 29.8982C15.9568 29.8982 15.7358 29.9538 15.5426 29.6772C15.3494 29.4007 14.7601 29.7328 14.6973 30.0093C14.818 30.2303 15.004 30.6916 14.998 31.45C14.9919 32.2084 14.8905 33.6237 15.2769 33.701C15.6633 33.7782 15.7744 33.7106 16.0317 33.8483C16.1959 33.9316 16.2309 33.9823 16.4109 33.9847Z" fill="url(#paint7_linear_506_30935)"/>
<path d="M14.4984 33.5375C15.0418 33.5628 14.9488 32.6921 14.8438 32.1813C14.7387 31.6705 14.7037 31.6017 14.7302 31.2056C14.7568 30.8095 14.7749 30.0547 14.4247 29.8881C14.1832 29.7673 14.0166 29.8953 13.7859 29.8736C13.5553 29.8518 13.5444 29.6127 13.164 29.8446C12.7836 30.0765 12.402 30.3035 12.4286 30.7394C12.4684 31.3143 13.1712 31.8625 13.3789 32.2646C13.5866 32.6668 13.9199 33.4879 14.4984 33.5375Z" fill="url(#paint8_linear_506_30935)"/>
<path d="M21.7368 31.2461C22.494 31.2461 22.2682 30.3694 22.8527 29.4927C23.4371 28.616 24.3127 27.2888 24.6447 26.9302C24.9768 26.5715 25.5347 26.2056 25.3355 25.7093C25.1362 25.213 24.5916 24.6719 23.9335 24.7661C23.2753 24.8603 23.4299 25.417 23.2971 26.3602C23.2705 26.7309 23.1763 26.964 22.4868 28.0013C21.883 28.8032 21.7622 29.0024 21.0666 29.1606C20.371 29.3188 20.0438 29.6159 20.1005 30.0723C20.0945 30.3827 20.499 30.2631 20.7514 30.5687C21.0038 30.8742 21.0352 31.1531 21.7368 31.2461Z" fill="url(#paint9_linear_506_30935)"/>
<path d="M25.621 25.378C26.4385 25.1594 25.9398 24.674 26.2248 24.3032C26.5098 23.9325 27.5942 22.3711 27.8623 22.1706C28.1304 21.9701 28.7958 21.7962 28.6038 21.4122C28.4117 21.0282 28.1944 21.2721 27.8876 20.9292C27.5809 20.5862 27.5556 20.3399 27.2488 20.5065C26.9421 20.6732 27.1208 21.0306 26.6861 21.6453C26.2513 22.26 25.586 23.2949 25.2659 23.5255C24.9459 23.7562 24.5269 23.7972 24.5414 24.331C24.5559 24.8648 25.2237 25.3514 25.621 25.378Z" fill="url(#paint10_linear_506_30935)"/>
<path d="M27.9629 20.1835C27.9629 19.7681 28.2769 19.814 28.6561 19.721C29.0352 19.628 29.9591 19.0194 30.209 19.3333C30.523 19.7862 29.4603 20.2294 29.2429 20.5252C29.0256 20.8211 28.9386 21.1725 28.5594 21.1822C28.1803 21.1918 28.0003 20.5904 27.9629 20.1835Z" fill="url(#paint11_linear_506_30935)"/>
<path d="M19.3212 30.1007C19.9057 30.091 19.9842 29.6176 19.9057 28.8846C19.8272 28.1516 20.0905 25.8547 20.367 24.2257C20.6435 22.5966 20.7546 22.1426 21.4659 20.9857C22.1772 19.8288 22.1398 19.2504 21.4297 19.295C21.0795 19.3071 20.8029 19.3554 20.5844 19.1984C20.3658 19.0414 20.0687 18.6357 19.5978 18.8772C19.1268 19.1187 19.477 20.3469 19.2113 21.9506C18.9456 23.5542 18.6957 26.9452 18.3225 27.6589C17.9494 28.3726 17.4337 28.5525 17.4712 29.2505C17.5376 29.8821 17.9711 29.7963 18.0931 29.6744C18.215 29.5524 18.4046 29.7118 18.5653 29.8821C18.7259 30.0524 19.0869 30.1007 19.3212 30.1007Z" fill="url(#paint12_linear_506_30935)"/>
<path d="M16.1436 29.1619C16.419 29.1619 16.6847 29.4324 17.0771 29.3418C17.4696 29.2512 17.5602 28.959 17.3633 27.7997C17.1665 26.6404 17.5698 21.6784 17.6664 20.9272C17.7329 19.8814 18.4429 19.751 18.4429 19.0542C18.4429 18.3575 17.53 18.5289 17.2885 18.6207C17.0469 18.7125 16.8477 18.7415 16.6376 18.5326C16.4274 18.3236 15.7186 18.2524 15.6256 18.9878C15.6135 19.6061 15.9879 19.5011 16.047 20.5649C16.1062 21.6288 16.0169 26.5148 15.913 27.1102C15.8079 28.0038 15.1981 28.3624 15.3321 28.9131C15.4662 29.4638 15.849 29.1727 16.1436 29.1619Z" fill="url(#paint13_linear_506_30935)"/>
<path d="M14.4175 29.033C14.6591 28.9678 15.0213 29.1972 15.1421 28.5753C15.3244 27.7082 14.9924 27.6261 14.8293 26.5622C14.6663 25.4983 14.3076 23.3717 14.4538 21.8006C14.4864 21.1123 14.8849 20.5133 14.7061 19.6946C14.6325 19.4434 14.0661 19.3323 13.699 19.6318C13.3319 19.9313 13.0698 19.5267 12.8066 19.6632C12.5433 19.7996 12.3731 20.0858 12.7027 20.7126C13.0324 21.3393 13.1991 21.6557 13.3428 23.2353C13.4865 24.8148 13.7413 26.9197 13.5843 27.9244C13.5432 28.2746 13.3355 28.5717 13.4841 29.033C13.5432 29.1972 13.6845 29.4436 13.9599 29.4061C14.2352 29.3687 14.1688 29.1066 14.4175 29.033Z" fill="url(#paint14_linear_506_30935)"/>
<path d="M12.1852 30.0224C12.6791 30.0128 12.7612 29.7809 12.789 29.2411C12.7479 28.9018 13.3131 28.8909 13.3131 28.2835C13.3131 27.8004 12.9122 27.9852 12.6864 27.286C12.4605 26.5868 11.7275 23.1801 11.7094 22.4664C11.7094 21.7733 12.085 21.5378 11.8302 21.0753C11.5754 20.6128 11.1056 20.899 10.9848 21.0753C10.8641 21.2516 10.631 21.1961 10.4644 21.2033C10.2977 21.2105 9.93302 21.3506 10.1105 21.882C10.2881 22.4133 10.4644 22.365 10.6407 23.4651C10.817 24.5653 11.3314 26.9225 11.4208 27.5553C11.5101 28.1881 11.2867 29.0817 11.5089 29.5744C11.5609 29.7102 11.6541 29.8264 11.7753 29.9067C11.8965 29.9871 12.0398 30.0275 12.1852 30.0224Z" fill="url(#paint15_linear_506_30935)"/>
<path d="M10.2965 20.8435C10.788 20.8435 11.0066 20.4123 11.2071 20.4039C11.4075 20.3954 11.8 20.3942 11.7638 19.7385C11.7638 19.2917 11.0247 19.4656 10.8605 18.8461C10.6963 18.2266 10.2784 16.6036 10.2144 16.1894C10.1504 15.7752 10.4052 15.6604 10.2965 15.1508C10.241 14.9407 9.84972 14.9504 9.66738 15.1967C9.48503 15.4431 9.0201 15.1786 8.91142 15.4237C8.73752 15.8887 9.09377 15.8983 9.25679 16.4997C9.41982 17.1011 9.78572 18.5224 9.86784 19.1564C9.96807 19.8943 9.59492 20.4051 9.90407 20.6961C10.0179 20.7822 10.1542 20.8334 10.2965 20.8435Z" fill="url(#paint16_linear_506_30935)"/>
<path d="M9.38397 14.946C9.74625 14.946 9.99984 14.7926 10.0071 14.4907C10.0143 14.1888 9.77885 14.3905 9.73176 13.7734C9.68466 13.1563 9.59409 12.4559 9.63515 12.2035C9.67621 11.9511 9.74383 11.7205 9.6279 11.5912C9.51197 11.462 9.28253 11.619 9.11226 11.6118C8.94198 11.6045 8.65578 11.4463 8.57487 11.6734C8.45411 11.9994 8.80673 12.1564 8.84658 12.4474C8.88643 12.7385 9.00961 13.8603 9.00357 14.0644C8.99753 14.2685 8.79707 14.5474 8.86591 14.6899C8.93474 14.8324 9.09173 14.923 9.38397 14.946Z" fill="url(#paint17_linear_506_30935)"/>
<path d="M9.11596 11.2396C9.47824 11.2263 9.6775 11.073 9.66542 10.7856C9.65335 10.4981 9.46013 10.5682 9.44202 9.99337C9.4239 9.41855 9.33937 9.24586 9.16064 9.23983C8.98192 9.23379 8.85391 9.57192 8.82252 10.0441C8.82252 10.6902 8.62447 10.7216 8.63051 10.9256C8.63654 11.1297 8.88531 11.2396 9.11596 11.2396Z" fill="url(#paint18_linear_506_30935)"/>
<path d="M13.0737 19.3427C13.5036 19.3222 13.5459 19.1544 14.1014 19.1338C14.6569 19.1133 14.6678 18.5566 14.5108 18.274C14.3538 17.9914 14.1485 17.8344 14.0809 17.0471C14.0133 16.2597 13.8394 13.8337 13.9106 13.4992C13.9722 13.0403 14.2982 12.7746 14.1835 12.4123C14.0688 12.05 13.7427 12.1708 13.558 12.2916C13.3732 12.4123 13.0544 12.3399 12.86 12.1708C12.6656 12.0017 12.2562 12.2348 12.3842 12.6937C12.5122 13.1526 12.7718 13.3905 12.7815 14.0076C12.7912 14.6246 12.959 16.2211 12.9409 17.6243C12.93 18.2414 12.5327 18.5711 12.6438 18.9672C12.7549 19.3633 13.0737 19.3427 13.0737 19.3427Z" fill="url(#paint19_linear_506_30935)"/>
<path d="M13.4154 11.9799C13.9226 11.9679 13.983 11.6177 13.9106 11.3387C13.8381 11.0597 13.7065 11.0972 13.6872 9.99706C13.6678 8.89693 13.6449 8.61315 13.7113 8.49239C13.7777 8.37163 13.9335 8.15667 13.8321 7.86323C13.6618 7.55408 13.244 7.85357 13.1305 7.85357C13.0169 7.85357 12.8213 7.62171 12.616 7.77628C12.3322 8.06369 12.6933 8.30642 12.6981 8.74961C12.703 9.1928 12.7561 10.5006 12.7476 10.7566C12.7392 11.0127 12.5001 11.1189 12.5605 11.4631C12.6208 11.8073 12.9469 11.9558 13.4154 11.9799Z" fill="url(#paint20_linear_506_30935)"/>
<path d="M13.1818 7.59827C13.5887 7.59827 13.7965 7.44732 13.7856 7.05848C13.7747 6.66963 13.5634 6.71914 13.5344 6.22885C13.5054 5.73857 13.433 5.13477 13.1818 5.13477C12.9306 5.13477 12.8461 5.63351 12.8461 6.30252C12.8545 6.72639 12.6166 7.02708 12.6601 7.2686C12.7036 7.51012 12.8026 7.58378 13.1818 7.59827Z" fill="url(#paint21_linear_506_30935)"/>
<path d="M17.8764 18.4012C17.4079 18.3626 17.368 18.1802 16.7606 18.1355C16.1532 18.0909 16.1641 17.4931 16.3476 17.1936C16.5312 16.8941 16.7654 16.7335 16.8645 15.8894C16.9635 15.0453 17.2521 12.4405 17.1881 12.077C17.1374 11.5807 16.7908 11.2824 16.9309 10.8984C17.071 10.5144 17.4224 10.6569 17.6204 10.7897C17.8185 10.9225 18.1675 10.8609 18.3861 10.6907C18.6046 10.5204 19.0406 10.7873 18.8872 11.2703C18.7338 11.7534 18.4356 12.0045 18.4042 12.6699C18.3728 13.3353 18.124 15.0368 18.0938 16.5548C18.0817 17.219 18.5032 17.5897 18.3667 18.0124C18.2303 18.435 17.8764 18.4012 17.8764 18.4012Z" fill="url(#paint22_linear_506_30935)"/>
<path d="M17.6688 10.6054C17.1157 10.5583 17.0723 10.1827 17.1677 9.89773C17.2631 9.61274 17.4092 9.65621 17.4973 8.50053C17.5855 7.34486 17.6338 7.05141 17.5686 6.91375C17.5034 6.77608 17.3488 6.55146 17.4744 6.24473C17.6797 5.93076 18.1156 6.27251 18.24 6.28096C18.3644 6.28941 18.5926 6.05756 18.8076 6.23387C19.0974 6.5563 18.6868 6.78695 18.6542 7.25308C18.6216 7.71922 18.4803 9.09588 18.4719 9.36155C18.4634 9.62723 18.7134 9.7661 18.6313 10.1187C18.5492 10.4713 18.1772 10.6114 17.6688 10.6054Z" fill="url(#paint23_linear_506_30935)"/>
<path d="M18.2321 6.00136C17.7877 6.00136 17.5606 5.84196 17.5775 5.43137C17.5944 5.02079 17.8191 5.07513 17.8529 4.55707C17.8867 4.03901 17.9567 3.40381 18.2248 3.40381C18.4929 3.40381 18.5871 3.93032 18.5871 4.63556C18.5786 5.08238 18.8395 5.4036 18.79 5.64753C18.7405 5.89147 18.6451 5.98687 18.2321 6.00136Z" fill="url(#paint24_linear_506_30935)"/>
<path d="M21.5501 18.8636C21.1129 18.7574 21.0996 18.5919 20.5321 18.4603C19.9645 18.3287 20.049 17.8082 20.2676 17.5763C20.4862 17.3445 20.7241 17.2418 20.9306 16.5233C21.1371 15.8048 21.759 13.584 21.7469 13.2628C21.7662 12.8232 21.4788 12.5104 21.6624 12.1977C21.8459 11.8849 22.1587 12.066 22.3278 12.2097C22.4968 12.3534 22.8362 12.3571 23.0656 12.2423C23.2951 12.1276 23.6694 12.4247 23.4605 12.8256C23.2516 13.2265 22.9352 13.3944 22.8144 13.968C22.6937 14.5416 22.2396 15.9799 21.9981 17.2925C21.8979 17.8686 22.2396 18.2586 22.0609 18.6028C22.0174 18.6973 21.9433 18.7743 21.8507 18.8217C21.758 18.869 21.6521 18.8837 21.5501 18.8636Z" fill="url(#paint25_linear_506_30935)"/>
<path d="M22.6137 12.0357C22.0739 11.9801 22.0352 11.6492 22.1306 11.398C22.226 11.1469 22.3661 11.1927 22.4663 10.1747C22.5666 9.15673 22.6125 8.8983 22.5497 8.77875C22.4869 8.6592 22.3383 8.44787 22.4651 8.18461C22.668 7.91411 23.0907 8.22687 23.2114 8.23654C23.3322 8.2462 23.558 8.04936 23.7657 8.21118C24.0459 8.50342 23.645 8.69422 23.6063 9.10601C23.5677 9.5178 23.4167 10.723 23.4071 10.9597C23.3974 11.1964 23.6486 11.322 23.5544 11.6311C23.4602 11.9403 23.11 12.0538 22.6137 12.0357Z" fill="url(#paint26_linear_506_30935)"/>
<path d="M23.2062 7.93379C22.7594 7.91085 22.5359 7.77922 22.5686 7.47007C22.6012 7.16092 22.8246 7.21164 22.8753 6.8228C22.926 6.43395 23.0202 5.95574 23.2907 5.96902C23.5612 5.9823 23.6409 6.38444 23.6155 6.9182C23.5914 7.25632 23.8414 7.51234 23.7834 7.69348C23.7254 7.87462 23.6192 7.94345 23.2062 7.93379Z" fill="url(#paint27_linear_506_30935)"/>
<path d="M47.349 36.5663C45.5519 31.1316 45.072 29.6706 45.4113 25.5192C45.5656 23.6365 45.9272 20.4852 46.2771 17.4375C46.6154 14.4891 48.6762 -0.108895 48.8548 -2.13965H28.9211C29.3439 0.484157 33.2194 21.5888 33.6623 26.4654C33.9033 30.0078 31.9878 30.8134 28.9211 32.9308C26.3353 34.7152 23.6174 35.691 20.2409 37.7545C18.2694 38.9586 16.2418 40.0707 14.192 41.1373C13.3203 41.5905 12.4428 42.0345 11.5598 42.4693C10.3018 43.0888 8.76894 42.9556 7.40101 43.1966C6.00982 43.4429 3.80676 43.981 3.46848 45.5942C3.43281 45.768 3.41966 45.9456 3.42936 46.1228C3.53547 46.3777 3.6886 46.6105 3.88076 46.8088C4.58058 47.5488 5.5838 48.2127 6.6293 48.2434C7.53632 48.2709 8.363 47.8406 9.21928 47.6091C9.65693 47.4907 10.1358 47.403 10.5883 47.4696C11.157 47.5541 11.6813 47.8131 12.2311 47.9675C13.3944 48.2828 14.6003 48.4123 15.8042 48.3512C16.4152 48.3308 17.0202 48.224 17.6013 48.0341C18.1045 47.8649 24.8352 46.9558 26.034 46.9864C26.4569 46.9981 34.878 46.9188 35.8146 47.126C38.3444 47.6493 40.9882 47.9305 42.5803 47.8596C44.204 47.7878 45.8574 47.5795 46.8088 46.6439C48.2095 45.2697 49.0774 41.8023 47.3564 36.5906L47.349 36.5663Z" fill="url(#paint28_linear_506_30935)"/>
<path d="M13.5145 43.4528C13.4087 43.3352 13.2691 43.2532 13.1149 43.2181C12.6149 43.0722 12.6456 43.6685 11.6688 43.8143C10.2173 43.975 8.8071 44.3736 8.47093 44.1378C8.38926 44.0757 8.28919 44.0426 8.18657 44.0437C7.84511 44.401 7.51951 45.1379 8.34302 46.4804C8.46728 46.6077 8.6364 46.6812 8.81421 46.6854C8.99201 46.6895 9.16438 46.6239 9.29444 46.5026C9.80187 46.0724 11.2745 45.4635 12.1603 46.0343C12.9278 46.7341 13.3792 46.8166 13.8687 46.5883C12.3443 45.7521 12.9712 44.27 13.5145 43.4528Z" fill="url(#paint29_linear_506_30935)"/>
<path d="M13.9324 43.0551C14.5667 43.274 15.2348 43.4251 16.9822 42.6883C18.7297 41.9515 21.9455 40.851 23.1548 40.2368C24.3642 39.6226 24.6528 39.4778 24.9107 38.9883C25.0809 38.6712 25.2659 38.3826 25.5503 38.3414C24.9298 37.6458 25.2205 37.2599 25.8674 36.9238C25.8404 36.7545 25.8542 36.5813 25.9076 36.4185C25.8484 36.4597 25.7892 36.5009 25.73 36.5453C24.9805 36.7441 24.8663 37.1447 24.4615 37.5908C24.0566 38.0369 21.1505 39.519 18.3502 41.0286C15.5498 42.5382 14.5667 42.7137 14.0381 42.7327C13.9399 42.7397 13.8446 42.7688 13.7591 42.8176C13.6737 42.8665 13.6003 42.9339 13.5444 43.015C13.6749 42.9911 13.8095 43.0051 13.9324 43.0551Z" fill="url(#paint30_linear_506_30935)"/>
<path d="M27.3384 41.3418C27.1428 40.384 26.1755 39.0415 25.5571 38.3438C25.2727 38.385 25.0877 38.6693 24.9175 38.9907C24.6596 39.4802 24.3689 39.625 23.1616 40.2392C21.9544 40.8534 18.7365 41.9528 16.989 42.6907C15.2416 43.4286 14.5693 43.2742 13.935 43.0554C13.8104 43.0059 13.6743 42.9935 13.5428 43.0194C13.4989 43.0769 13.4613 43.1389 13.4307 43.2044C13.4244 43.2171 13.4202 43.2298 13.4138 43.2436C13.0385 44.0237 12.3852 46.0355 14.2976 46.5852C15.1369 46.86 15.6856 46.7966 16.0302 46.287C16.3748 45.7775 16.507 45.4413 18.1561 44.9255C19.8052 44.4096 23.8467 43.5681 25.3002 43.5956C25.7421 43.6125 26.2664 43.8652 26.7559 43.714C27.1787 43.584 27.4293 43.1674 27.4853 43.0628C27.5025 42.4854 27.4532 41.9079 27.3384 41.3418Z" fill="url(#paint31_linear_506_30935)"/>
<path d="M27.7202 36.6185C28.3936 36.8818 28.8693 36.8934 29.1949 36.7665C29.1115 36.28 29.1511 35.7803 29.3101 35.313C28.8936 35.295 27.4792 35.3267 25.9062 36.4156C25.8528 36.5784 25.839 36.7516 25.866 36.9209C25.866 36.9209 26.9157 36.3025 27.7202 36.6185Z" fill="url(#paint32_linear_506_30935)"/>
<path d="M32.022 41.3942C31.6584 40.6194 30.6604 39.9143 29.654 38.0717C29.4274 37.6664 29.2722 37.2251 29.1952 36.7672C28.8696 36.894 28.3939 36.8824 27.7205 36.6192C26.9161 36.302 25.8663 36.9215 25.8663 36.9215C25.2225 37.2577 24.9318 37.6446 25.5566 38.3412C26.1813 39.0379 27.1423 40.3815 27.3379 41.3393C27.453 41.9054 27.5027 42.4828 27.4858 43.0603L27.4985 43.036C27.4985 43.036 27.71 43.7612 28.7872 43.5106C29.8644 43.2601 30.2904 43.4261 30.7957 43.5106C31.0661 43.5534 31.343 43.508 31.5855 43.3812C31.828 43.2544 32.0233 43.0529 32.1425 42.8066C32.2844 42.3377 32.2413 41.8323 32.022 41.3942Z" fill="url(#paint33_linear_506_30935)"/>
<path d="M34.6996 38.8597C35.0496 37.8543 35.0369 37.57 33.7123 36.442C32.7926 35.7105 32.5494 34.8479 32.5304 34.1861C32.4628 34.148 32.1615 34.0349 31.2692 34.3859C30.6288 34.6411 30.0137 34.9557 29.4319 35.3257C29.4319 35.3257 29.3876 35.3204 29.3093 35.3162C29.1338 35.8162 28.9647 36.8099 29.6529 38.0742C30.4161 39.4749 31.1752 40.217 31.6562 40.8323C33.8391 41.2213 34.3677 39.81 34.6996 38.8597Z" fill="url(#paint34_linear_506_30935)"/>
<path d="M46.5479 39.1092C46.0616 39.2963 45.5236 39.0564 45.5542 38.2635C45.5849 37.4707 45.1525 37.3914 45.1525 37.3914C44.5658 37.7582 43.4727 37.8956 42.5456 37.3206C41.6185 36.7455 41.3511 37.1546 40.2759 38.1663C39.2008 39.1779 38.2272 39.049 37.5411 38.4422C36.8551 37.8354 36.3307 37.9474 35.6246 38.3523C35.2926 38.5415 35.0368 38.4665 34.8581 38.3343C34.8161 38.5106 34.7639 38.6843 34.7017 38.8545C34.3697 39.8059 33.8412 41.2161 31.6582 40.8271C31.8004 41.0011 31.9227 41.1904 32.0229 41.3916C32.2413 41.8312 32.2825 42.3379 32.1381 42.8071C32.4045 42.9974 32.8041 42.4847 33.3739 42.0734C33.7968 41.7563 34.1467 42.0935 34.3655 42.4878C34.5843 42.8821 34.93 43.1792 36.1626 43.1432C37.3953 43.1073 39.2283 43.4223 41.2982 44.7797C42.7327 45.8707 43.4378 46.1688 44.9252 45.5091C46.4126 44.8495 47.1716 42.6718 47.4253 40.9465C47.6791 39.2213 47.0353 38.9253 46.5479 39.1092Z" fill="url(#paint35_linear_506_30935)"/>
<path d="M35.6225 38.3544C36.3286 37.9495 36.8519 37.8375 37.5391 38.4443C38.2262 39.0511 39.1977 39.1843 40.2739 38.1684C41.35 37.1525 41.6175 36.7455 42.5435 37.3227C43.4696 37.8999 44.5637 37.7603 45.1504 37.3935C45.18 37.3755 45.2086 37.3554 45.236 37.3354C45.2963 37.2201 45.2212 36.8713 44.1905 35.8205C43.4273 34.9653 43.737 34.5223 43.6842 34.0625C43.6313 33.6026 43.1398 32.9662 42.3099 33.4652C41.4801 33.9642 39.1945 33.8024 38.0729 33.0614C37.4149 32.6216 36.6866 32.2973 35.9195 32.1025C35.9195 32.1025 35.4375 32.093 35.3254 32.8214C35.2493 33.3193 34.8518 33.3034 34.1245 33.2368C33.3972 33.1702 32.6445 33.4018 32.5515 34.1978C32.5467 34.1933 32.5413 34.1894 32.5356 34.1862C32.5557 34.8479 32.7978 35.7105 33.7175 36.4421C34.7821 37.348 34.9988 37.7106 34.8613 38.3396C35.0347 38.4686 35.2874 38.5437 35.6225 38.3544Z" fill="url(#paint36_linear_506_30935)"/>
<path d="M42.3955 23.6578C42.3532 21.128 42.3236 7.00229 42.3955 3.86049L38.9976 1.28906C39.0557 2.80393 39.5708 13.1932 39.6512 14.3719C39.7791 16.2568 39.9736 21.6069 39.6882 26.0141C39.982 26.8598 40.4789 27.2192 41.4441 28.2193C42.2337 29.0365 42.6428 29.4318 42.904 30.0164C42.8617 29.8938 42.8152 29.7701 42.7623 29.6475C42.3828 28.5481 42.4473 26.7763 42.3955 23.6578Z" fill="url(#paint37_linear_506_30935)"/>
<path d="M41.4434 28.2193C40.4782 27.2192 39.9814 26.8556 39.6875 26.0141C39.687 26.0162 39.687 26.0184 39.6875 26.0205C38.458 23.3755 36.2497 3.43192 36.8546 0.860491L32.5688 -1.71094C32.886 0.743726 35.2243 19.7252 36.0203 23.7614C36.7338 26.919 36.7666 27.6537 36.2497 28.9043C35.7327 30.1549 35.3543 30.8251 35.7866 32.2787C36.1038 32.9595 37.1472 32.4087 37.7751 33.172C38.4031 33.9352 38.9982 34.0071 39.5849 33.8485C40.1716 33.69 40.4433 33.876 40.882 34.0874C41.3207 34.2989 42.1009 34.0663 42.6866 33.1498C43.2151 32.3231 43.2965 31.1666 42.898 30.0206C42.6422 29.4318 42.233 29.0365 41.4434 28.2193Z" fill="url(#paint38_linear_506_30935)"/>
</g>
<defs>
<linearGradient id="paint0_linear_506_30935" x1="13.1906" y1="40.9955" x2="9.15104" y2="9.22675" gradientUnits="userSpaceOnUse">
<stop stop-color="#BBD1FF"/>
<stop offset="1" stop-color="#DAE6FF"/>
</linearGradient>
<linearGradient id="paint1_linear_506_30935" x1="19.1097" y1="36.9084" x2="16.8978" y2="45.6464" gradientUnits="userSpaceOnUse">
<stop offset="0.0104167" stop-color="#7DA7FF"/>
<stop offset="1" stop-color="#2669F3"/>
</linearGradient>
<linearGradient id="paint2_linear_506_30935" x1="14.0391" y1="37.7433" x2="11.5771" y2="45.1368" gradientUnits="userSpaceOnUse">
<stop offset="0.0104167" stop-color="#7DA7FF"/>
<stop offset="1" stop-color="#2669F3"/>
</linearGradient>
<linearGradient id="paint3_linear_506_30935" x1="15.9204" y1="34.2478" x2="15.7052" y2="36.2958" gradientUnits="userSpaceOnUse">
<stop offset="0.0104167" stop-color="#7DA7FF"/>
<stop offset="1" stop-color="#2669F3"/>
</linearGradient>
<linearGradient id="paint4_linear_506_30935" x1="18.7971" y1="33.1092" x2="18.3186" y2="36.1943" gradientUnits="userSpaceOnUse">
<stop offset="0.0104167" stop-color="#7DA7FF"/>
<stop offset="1" stop-color="#2669F3"/>
</linearGradient>
<linearGradient id="paint5_linear_506_30935" x1="13.7851" y1="32.7755" x2="13.3203" y2="35.5912" gradientUnits="userSpaceOnUse">
<stop offset="0.0104167" stop-color="#7DA7FF"/>
<stop offset="1" stop-color="#2669F3"/>
</linearGradient>
<linearGradient id="paint6_linear_506_30935" x1="20.4546" y1="30.7376" x2="20.1665" y2="33.4129" gradientUnits="userSpaceOnUse">
<stop offset="0.0104167" stop-color="#7DA7FF"/>
<stop offset="1" stop-color="#2669F3"/>
</linearGradient>
<linearGradient id="paint7_linear_506_30935" x1="17.1469" y1="30.6386" x2="16.2926" y2="34.7966" gradientUnits="userSpaceOnUse">
<stop offset="0.0104167" stop-color="#7DA7FF"/>
<stop offset="1" stop-color="#2669F3"/>
</linearGradient>
<linearGradient id="paint8_linear_506_30935" x1="14.5315" y1="30.6603" x2="13.7961" y2="34.2359" gradientUnits="userSpaceOnUse">
<stop offset="0.0104167" stop-color="#7DA7FF"/>
<stop offset="1" stop-color="#2669F3"/>
</linearGradient>
<linearGradient id="paint9_linear_506_30935" x1="24.5466" y1="26.3229" x2="23.5148" y2="32.5273" gradientUnits="userSpaceOnUse">
<stop offset="0.0104167" stop-color="#7DA7FF"/>
<stop offset="1" stop-color="#2669F3"/>
</linearGradient>
<linearGradient id="paint10_linear_506_30935" x1="27.9937" y1="21.6425" x2="27.2269" y2="26.3554" gradientUnits="userSpaceOnUse">
<stop offset="0.0104167" stop-color="#7DA7FF"/>
<stop offset="1" stop-color="#2669F3"/>
</linearGradient>
<linearGradient id="paint11_linear_506_30935" x1="29.9043" y1="19.7122" x2="29.6903" y2="21.5917" gradientUnits="userSpaceOnUse">
<stop offset="0.0104167" stop-color="#7DA7FF"/>
<stop offset="1" stop-color="#2669F3"/>
</linearGradient>
<linearGradient id="paint12_linear_506_30935" x1="21.2716" y1="21.5308" x2="17.8973" y2="31.4856" gradientUnits="userSpaceOnUse">
<stop offset="0.0104167" stop-color="#7DA7FF"/>
<stop offset="1" stop-color="#2669F3"/>
</linearGradient>
<linearGradient id="paint13_linear_506_30935" x1="17.9507" y1="21.0398" x2="13.7778" y2="29.8358" gradientUnits="userSpaceOnUse">
<stop offset="0.0104167" stop-color="#7DA7FF"/>
<stop offset="1" stop-color="#2669F3"/>
</linearGradient>
<linearGradient id="paint14_linear_506_30935" x1="14.7747" y1="21.8566" x2="10.8429" y2="29.6569" gradientUnits="userSpaceOnUse">
<stop offset="0.0104167" stop-color="#7DA7FF"/>
<stop offset="1" stop-color="#2669F3"/>
</linearGradient>
<linearGradient id="paint15_linear_506_30935" x1="12.802" y1="23.046" x2="9.78358" y2="30.9252" gradientUnits="userSpaceOnUse">
<stop offset="0.0104167" stop-color="#7DA7FF"/>
<stop offset="1" stop-color="#2669F3"/>
</linearGradient>
<linearGradient id="paint16_linear_506_30935" x1="11.3099" y1="16.4127" x2="9.85413" y2="21.7541" gradientUnits="userSpaceOnUse">
<stop offset="0.0104167" stop-color="#7DA7FF"/>
<stop offset="1" stop-color="#2669F3"/>
</linearGradient>
<linearGradient id="paint17_linear_506_30935" x1="9.77806" y1="12.3626" x2="8.81599" y2="15.4039" gradientUnits="userSpaceOnUse">
<stop offset="0.0104167" stop-color="#7DA7FF"/>
<stop offset="1" stop-color="#2669F3"/>
</linearGradient>
<linearGradient id="paint18_linear_506_30935" x1="9.50309" y1="9.72271" x2="9.0224" y2="11.5616" gradientUnits="userSpaceOnUse">
<stop offset="0.0104167" stop-color="#7DA7FF"/>
<stop offset="1" stop-color="#2669F3"/>
</linearGradient>
<linearGradient id="paint19_linear_506_30935" x1="14.2459" y1="13.8611" x2="11.6405" y2="19.8216" gradientUnits="userSpaceOnUse">
<stop offset="0.0104167" stop-color="#7DA7FF"/>
<stop offset="1" stop-color="#2669F3"/>
</linearGradient>
<linearGradient id="paint20_linear_506_30935" x1="13.7111" y1="8.75115" x2="12.2604" y2="12.3475" gradientUnits="userSpaceOnUse">
<stop offset="0.0104167" stop-color="#7DA7FF"/>
<stop offset="1" stop-color="#2669F3"/>
</linearGradient>
<linearGradient id="paint21_linear_506_30935" x1="13.6081" y1="5.72969" x2="12.9518" y2="7.95616" gradientUnits="userSpaceOnUse">
<stop offset="0.0104167" stop-color="#7DA7FF"/>
<stop offset="1" stop-color="#2669F3"/>
</linearGradient>
<linearGradient id="paint22_linear_506_30935" x1="18.4975" y1="12.5138" x2="15.9074" y2="19.1245" gradientUnits="userSpaceOnUse">
<stop offset="0.0104167" stop-color="#7DA7FF"/>
<stop offset="1" stop-color="#2669F3"/>
</linearGradient>
<linearGradient id="paint23_linear_506_30935" x1="18.6302" y1="7.19741" x2="17.2813" y2="11.151" gradientUnits="userSpaceOnUse">
<stop offset="0.0104167" stop-color="#7DA7FF"/>
<stop offset="1" stop-color="#2669F3"/>
</linearGradient>
<linearGradient id="paint24_linear_506_30935" x1="18.6044" y1="4.03111" x2="17.9253" y2="6.38691" gradientUnits="userSpaceOnUse">
<stop offset="0.0104167" stop-color="#7DA7FF"/>
<stop offset="1" stop-color="#2669F3"/>
</linearGradient>
<linearGradient id="paint25_linear_506_30935" x1="22.9838" y1="13.6789" x2="21.2861" y2="19.9448" gradientUnits="userSpaceOnUse">
<stop offset="0.0104167" stop-color="#7DA7FF"/>
<stop offset="1" stop-color="#2669F3"/>
</linearGradient>
<linearGradient id="paint26_linear_506_30935" x1="23.5854" y1="9.03171" x2="22.5073" y2="12.5985" gradientUnits="userSpaceOnUse">
<stop offset="0.0104167" stop-color="#7DA7FF"/>
<stop offset="1" stop-color="#2669F3"/>
</linearGradient>
<linearGradient id="paint27_linear_506_30935" x1="23.5992" y1="6.44351" x2="23.1991" y2="8.28788" gradientUnits="userSpaceOnUse">
<stop offset="0.0104167" stop-color="#7DA7FF"/>
<stop offset="1" stop-color="#2669F3"/>
</linearGradient>
<linearGradient id="paint28_linear_506_30935" x1="13.6856" y1="45.4666" x2="11.8319" y2="15.3033" gradientUnits="userSpaceOnUse">
<stop stop-color="#BBD1FF"/>
<stop offset="1" stop-color="#DAE6FF"/>
</linearGradient>
<linearGradient id="paint29_linear_506_30935" x1="12.9184" y1="44.0422" x2="12.6494" y2="47.4657" gradientUnits="userSpaceOnUse">
<stop offset="0.0104167" stop-color="#7DA7FF"/>
<stop offset="1" stop-color="#2669F3"/>
</linearGradient>
<linearGradient id="paint30_linear_506_30935" x1="23.9634" y1="38.0646" x2="23.4665" y2="44.7233" gradientUnits="userSpaceOnUse">
<stop offset="0.0104167" stop-color="#7DA7FF"/>
<stop offset="1" stop-color="#2669F3"/>
</linearGradient>
<linearGradient id="paint31_linear_506_30935" x1="25.2095" y1="40.3729" x2="24.5657" y2="48.5761" gradientUnits="userSpaceOnUse">
<stop offset="0.0104167" stop-color="#7DA7FF"/>
<stop offset="1" stop-color="#2669F3"/>
</linearGradient>
<linearGradient id="paint32_linear_506_30935" x1="28.7664" y1="35.6991" x2="28.667" y2="37.2751" gradientUnits="userSpaceOnUse">
<stop offset="0.0104167" stop-color="#7DA7FF"/>
<stop offset="1" stop-color="#2669F3"/>
</linearGradient>
<linearGradient id="paint33_linear_506_30935" x1="31.1215" y1="38.2276" x2="30.2005" y2="45.0126" gradientUnits="userSpaceOnUse">
<stop offset="0.0104167" stop-color="#7DA7FF"/>
<stop offset="1" stop-color="#2669F3"/>
</linearGradient>
<linearGradient id="paint34_linear_506_30935" x1="33.9909" y1="35.7708" x2="32.9584" y2="42.247" gradientUnits="userSpaceOnUse">
<stop offset="0.0104167" stop-color="#7DA7FF"/>
<stop offset="1" stop-color="#2669F3"/>
</linearGradient>
<linearGradient id="paint35_linear_506_30935" x1="44.9941" y1="39.183" x2="44.3472" y2="47.7775" gradientUnits="userSpaceOnUse">
<stop offset="0.0104167" stop-color="#7DA7FF"/>
<stop offset="1" stop-color="#2669F3"/>
</linearGradient>
<linearGradient id="paint36_linear_506_30935" x1="43.2516" y1="33.748" x2="42.7687" y2="40.4059" gradientUnits="userSpaceOnUse">
<stop offset="0.0104167" stop-color="#7DA7FF"/>
<stop offset="1" stop-color="#2669F3"/>
</linearGradient>
<linearGradient id="paint37_linear_506_30935" x1="42.3558" y1="14.403" x2="32.493" y2="26.7363" gradientUnits="userSpaceOnUse">
<stop offset="0.0104167" stop-color="#7DA7FF"/>
<stop offset="1" stop-color="#2669F3"/>
</linearGradient>
<linearGradient id="paint38_linear_506_30935" x1="41.6891" y1="15.4037" x2="33.9367" y2="36.8984" gradientUnits="userSpaceOnUse">
<stop offset="0.0104167" stop-color="#7DA7FF"/>
<stop offset="1" stop-color="#2669F3"/>
</linearGradient>
</defs>
</svg>
