<svg width="48" height="48" viewBox="0 0 48 48" fill="none" xmlns="http://www.w3.org/2000/svg">
<rect width="48" height="48" rx="24" fill="#EAEFFA"/>
<circle cx="24" cy="24" r="24" fill="#F7F9FF"/>
<mask id="mask0_506_30850" style="mask-type:alpha" maskUnits="userSpaceOnUse" x="0" y="0" width="48" height="48">
<circle cx="24" cy="24" r="24" fill="#EDF2FF"/>
</mask>
<g mask="url(#mask0_506_30850)">
<path d="M18.0649 35.4346C16.8031 34.2394 15.6922 30.423 15.2678 26.8203C14.8434 23.2177 11.6842 23.4749 9.517 23.7434C4.72061 24.1727 3.00802 22.9397 2.74019 21.4362C2.47236 19.9327 3.40976 19.2633 3.35506 18.3517C3.32866 17.7352 2.20453 17.7844 2.07062 16.9296C1.9367 16.2866 2.28563 15.8308 3.27585 15.3202C3.27585 15.3202 1.9103 15.375 1.72357 14.2479C1.53685 13.1208 2.793 12.317 2.31204 11.0556C1.96499 10.2235 1.054 10.5734 0.278806 10.3843C-0.852864 10.2235 -2.47681 9.33845 -1.29987 7.62127C-0.122937 5.9041 2.24037 2.6305 2.55346 1.79083C2.86656 0.951155 2.48745 -0.0681801 2.48745 -1.70214C2.52706 -5.2197 6.73498 -13.6278 12.5272 -16.0428C27.0503 -22.0019 44.2744 -13.6278 44.3498 -0.724413C44.3498 12.5515 31.147 16.2469 37.9823 31.9076C39.7665 36.3253 48.6784 41.6262 49.7196 51.0612H10.7807C11.0598 44.4876 13.0516 37.3238 18.0649 35.4346Z" fill="url(#paint0_linear_506_30850)"/>
<path d="M22.7347 35.571C22.5718 34.5995 22.9013 34.2816 23.9722 34.1349C25.0431 33.9881 26.4454 33.4679 27.1681 34.4283C27.3521 34.6132 27.5862 34.7127 27.8272 34.7082C28.0682 34.7037 28.2997 34.5955 28.4787 34.4039C28.9317 33.9148 29.9427 33.1544 30.7459 33.4501C31.3843 33.6947 31.2814 34.5261 31.8393 34.5995C32.3972 34.6729 32.7866 34.2571 33.3221 34.4772C33.8576 34.6973 34.745 35.7 34.3537 36.2402C33.6928 36.8761 32.9514 35.7489 32.6013 35.8712C31.7157 36.0446 31.302 37.3652 30.0457 37.3652C28.7894 37.3652 28.8699 36.2158 28.1735 36.2891C27.477 36.3625 27.5968 37.0717 26.1739 37.3652C25.4251 37.5119 24.9027 37.6342 24.3429 37.732C23.7831 37.8298 23.2065 37.9032 23.0211 37.1451C22.9006 36.6273 22.805 36.1017 22.7347 35.571Z" fill="url(#paint1_linear_506_30850)"/>
<path d="M21.8169 30.6264C21.7122 29.6412 22.2899 29.3777 23.1535 29.3235C24.4304 29.2151 24.9033 28.9713 25.5408 29.757C25.9521 30.2496 26.1016 30.4367 26.5503 30.2742C26.9989 30.1116 27.5373 28.9171 28.4627 29.0255C29.575 29.1339 29.1637 30.4638 29.8834 30.5032C30.6032 30.5426 30.9322 30.0969 31.4481 30.8554C31.9641 31.614 32.3155 32.2224 31.9211 32.508C31.3248 32.9415 31.035 31.9662 30.4256 32.0155C29.8161 32.0647 29.3039 33.4267 28.3954 33.4267C27.2737 33.4267 27.113 31.9884 26.5577 32.0697C26.0025 32.1509 25.9595 32.9095 24.8753 33.0745C24.4434 33.2174 23.5798 33.2469 23.3181 33.3208C22.6825 33.3848 22.2581 33.6213 22.03 32.5056C21.8911 31.8959 21.8193 31.263 21.8169 30.6264Z" fill="url(#paint2_linear_506_30850)"/>
<path d="M21.8051 27.3475C21.7899 26.8955 22.1568 26.5299 22.743 26.4571C23.3291 26.3843 23.5925 26.3691 23.9 26.3539C24.4895 26.3539 24.6203 26.9379 25.0468 26.9379C25.706 26.9379 25.7807 25.9222 26.8647 26.105C27.2758 26.1931 27.218 26.9819 27.687 26.9819C28.1559 26.9819 28.3173 26.6027 28.7437 27.1139C29.1701 27.6251 29.2857 28.1296 28.9782 28.2108C28.4498 28.3276 28.3173 27.7724 27.9367 27.8299C27.5561 27.8875 27.1144 28.8236 26.2785 28.8236C25.4426 28.8236 25.6193 28.05 25.2082 28.05C24.797 28.05 24.8123 28.546 24.1072 28.6933C23.4022 28.8405 23.0879 28.9269 22.7583 28.9844C22.4287 29.042 21.9088 29.1164 21.8629 28.502C21.817 27.8875 21.8051 27.3475 21.8051 27.3475Z" fill="url(#paint3_linear_506_30850)"/>
<path d="M21.8149 24.3848C21.7522 23.662 21.9723 23.4435 22.6494 23.3919C23.3265 23.3403 24.2271 23.0225 24.6401 23.7613C24.6894 23.8327 24.751 23.891 24.8209 23.9325C24.8908 23.9739 24.9674 23.9975 25.0456 24.0016C25.1239 24.0057 25.202 23.9903 25.2748 23.9564C25.3476 23.9225 25.4134 23.8709 25.4679 23.8049C25.7726 23.4674 26.4362 22.957 26.9288 23.2092C27.3181 23.4197 27.22 24.0273 27.5653 24.1088C27.9106 24.1902 28.1747 23.9102 28.5014 24.0889C28.8281 24.2676 29.3478 25.058 29.0753 25.4373C28.6351 25.8741 28.217 25.0083 27.9919 25.0818C27.4299 25.1672 27.1167 26.1204 26.3295 26.0608C25.5424 26.0012 25.6406 25.1573 25.1971 25.1771C24.7536 25.197 24.8043 25.7272 23.9004 25.8741C23.4298 25.9476 23.0929 26.0131 22.7374 26.0588C22.382 26.1045 22.018 26.1303 21.9334 25.5624C21.8487 24.9944 21.8149 24.3848 21.8149 24.3848Z" fill="url(#paint4_linear_506_30850)"/>
<path d="M21.8436 20.9423C21.8559 20.317 22.2089 20.1836 22.7174 20.2061C23.4636 20.22 23.7554 20.097 24.0682 20.6357C24.2709 20.9718 24.3408 21.1017 24.6152 21.0289C24.8895 20.9562 25.2844 20.2356 25.8139 20.3638C26.45 20.5058 26.1145 21.3199 26.5304 21.384C26.9463 21.4481 27.1665 21.1952 27.4042 21.7079C27.6418 22.2207 27.8078 22.6312 27.5579 22.7871C27.1822 23.0227 27.0861 22.3852 26.7244 22.38C26.3627 22.3748 25.9747 23.1993 25.4452 23.1387C24.7986 23.066 24.8074 22.1462 24.4789 22.1618C24.1503 22.1774 24.0734 22.6537 23.4304 22.6814C23.17 22.7455 22.6685 22.7074 22.5129 22.7317C22.139 22.7317 21.8768 22.8529 21.8262 22.1306C21.7926 21.7349 21.7984 21.3369 21.8436 20.9423Z" fill="url(#paint5_linear_506_30850)"/>
<path d="M22.0382 17.9338C22.0822 17.7248 22.2045 17.5405 22.3801 17.4183C22.5558 17.2962 22.7715 17.2454 22.9833 17.2765C23.296 17.302 23.607 17.3444 23.9149 17.4037C24.3769 17.5175 24.344 18.0938 24.6764 18.1748C25.1944 18.302 25.4901 17.3536 26.298 17.743C26.5995 17.9049 26.3695 18.6355 26.7368 18.7261C27.104 18.8167 27.3166 18.4909 27.535 19.0538C27.7534 19.6167 27.7283 20.1218 27.4635 20.1295C27.0228 20.1295 27.0479 19.5897 26.7348 19.5724C26.4217 19.555 25.8593 20.3435 25.2041 20.1854C24.5489 20.0273 24.8659 19.3295 24.545 19.2505C24.2242 19.1714 24.1179 19.636 23.5323 19.636C22.9466 19.636 22.6838 19.6591 22.4055 19.6495C22.1271 19.6399 21.7058 19.609 21.8256 19.023C21.9455 18.437 22.0382 17.9338 22.0382 17.9338Z" fill="url(#paint6_linear_506_30850)"/>
<path d="M21.9584 14.9476C22.0199 14.5318 22.2931 14.2758 22.6504 14.3345C22.8849 14.3672 23.1181 14.4182 23.3489 14.4872C23.6965 14.6117 23.6852 15.1707 23.9357 15.2623C24.3254 15.4009 24.5275 14.4848 25.1386 14.8888C25.3666 15.0556 25.2098 15.7626 25.4878 15.8613C25.7659 15.9599 25.9179 15.6499 26.0909 16.2042C26.2639 16.7585 26.2526 17.2518 26.0586 17.2518C25.7352 17.2518 25.7352 16.7139 25.5024 16.6857C25.2696 16.6575 24.8557 17.4162 24.3707 17.2377C23.8856 17.0592 24.1007 16.3945 23.8581 16.2982C23.6156 16.2019 23.5477 16.6646 23.1096 16.6482C22.6714 16.6317 22.4758 16.6482 22.2672 16.6294C22.0587 16.6106 21.745 16.5683 21.8145 15.9999C21.8841 15.4314 21.9584 14.9476 21.9584 14.9476Z" fill="url(#paint7_linear_506_30850)"/>
</g>
<defs>
<linearGradient id="paint0_linear_506_30850" x1="10.0461" y1="45.9184" x2="4.98245" y2="-7.30549" gradientUnits="userSpaceOnUse">
<stop stop-color="#BBD1FF"/>
<stop offset="1" stop-color="#DAE6FF"/>
</linearGradient>
<linearGradient id="paint1_linear_506_30850" x1="32.6018" y1="34.4483" x2="32.3826" y2="38.7674" gradientUnits="userSpaceOnUse">
<stop offset="0.0104167" stop-color="#7DA7FF"/>
<stop offset="1" stop-color="#2669F3"/>
</linearGradient>
<linearGradient id="paint2_linear_506_30850" x1="30.4729" y1="30.0831" x2="30.2225" y2="34.3988" gradientUnits="userSpaceOnUse">
<stop offset="0.0104167" stop-color="#7DA7FF"/>
<stop offset="1" stop-color="#2669F3"/>
</linearGradient>
<linearGradient id="paint3_linear_506_30850" x1="27.9963" y1="26.7927" x2="27.8404" y2="29.6711" gradientUnits="userSpaceOnUse">
<stop offset="0.0104167" stop-color="#7DA7FF"/>
<stop offset="1" stop-color="#2669F3"/>
</linearGradient>
<linearGradient id="paint4_linear_506_30850" x1="27.9963" y1="23.8513" x2="27.8404" y2="26.7297" gradientUnits="userSpaceOnUse">
<stop offset="0.0104167" stop-color="#7DA7FF"/>
<stop offset="1" stop-color="#2669F3"/>
</linearGradient>
<linearGradient id="paint5_linear_506_30850" x1="26.7579" y1="20.9128" x2="26.5635" y2="23.7865" gradientUnits="userSpaceOnUse">
<stop offset="0.0104167" stop-color="#7DA7FF"/>
<stop offset="1" stop-color="#2669F3"/>
</linearGradient>
<linearGradient id="paint6_linear_506_30850" x1="26.7579" y1="17.9773" x2="26.5635" y2="20.8509" gradientUnits="userSpaceOnUse">
<stop offset="0.0104167" stop-color="#7DA7FF"/>
<stop offset="1" stop-color="#2669F3"/>
</linearGradient>
<linearGradient id="paint7_linear_506_30850" x1="25.5196" y1="15.0359" x2="25.2612" y2="17.8994" gradientUnits="userSpaceOnUse">
<stop offset="0.0104167" stop-color="#7DA7FF"/>
<stop offset="1" stop-color="#2669F3"/>
</linearGradient>
</defs>
</svg>
