<svg width="48" height="48" viewBox="0 0 48 48" fill="none" xmlns="http://www.w3.org/2000/svg">
<rect width="48" height="48" rx="24" fill="#EAEFFA"/>
<circle cx="24" cy="24" r="24" fill="#F7F9FF"/>
<mask id="mask0_506_30984" style="mask-type:alpha" maskUnits="userSpaceOnUse" x="0" y="0" width="48" height="48">
<circle cx="24" cy="24" r="24" fill="#EDF2FF"/>
</mask>
<g mask="url(#mask0_506_30984)">
<path d="M48.8029 9.79883H0.466309V57.7273H48.8029V9.79883Z" fill="url(#paint0_linear_506_30984)"/>
<path d="M48.8046 6.59253C45.2339 6.75053 41.6557 6.75053 38.085 6.59253C33.9293 6.41376 29.3266 5.68262 24.2684 5.68262C19.762 5.68262 16.3741 6.42985 12.6398 6.59253C6.06091 6.87676 0.44873 6.64973 0.44873 6.64973V17.7206H48.8046V6.59253Z" fill="url(#paint1_linear_506_30984)"/>
<path opacity="0.54" d="M14.5648 7.48456C16.0855 8.33727 18.4146 8.33905 20.1684 8.3176C22.1404 8.29258 24.1145 8.11381 26.0843 8.24967C27.8916 8.37481 32.1221 7.68299 35.095 8.45346C36.7333 8.87892 38.0893 9.57074 36.806 10.8847C34.7849 12.9583 41.5755 13.9809 48.8068 12.9083V6.59253C45.2361 6.75053 41.6579 6.75053 38.0872 6.59253C33.9315 6.41376 29.3288 5.68262 24.2706 5.68262C20.4357 5.68262 17.4094 6.21891 14.291 6.48348C14.0258 6.81241 13.9916 7.16636 14.5648 7.48456Z" fill="#9FBFFF"/>
<path d="M13.1335 9.66898C13.1335 9.83166 12.5517 9.96216 11.8331 9.96216C11.1145 9.96216 10.5327 9.83166 10.5327 9.66898C10.5327 9.50631 11.1145 9.37402 11.8331 9.37402C12.5517 9.37402 13.1335 9.50631 13.1335 9.66898Z" fill="#4377F9"/>
<g style="mix-blend-mode:multiply">
<path d="M11.9326 9.56173C12.3306 9.54612 12.7279 9.60158 13.0982 9.7244C13.1129 9.70848 13.1211 9.68907 13.1218 9.66898C13.1218 9.50631 12.54 9.37402 11.8214 9.37402C11.1027 9.37402 10.521 9.50631 10.521 9.66898C10.521 9.71546 10.5723 9.76015 10.6579 9.79948C10.7777 9.66362 11.2995 9.56173 11.9326 9.56173Z" fill="#163FF3"/>
</g>
<path d="M29.9323 9.01566C29.9323 9.17834 29.3506 9.30884 28.6319 9.30884C27.9133 9.30884 27.3315 9.17834 27.3315 9.01566C27.3315 8.85299 27.9133 8.7207 28.6319 8.7207C29.3506 8.7207 29.9323 8.85299 29.9323 9.01566Z" fill="#4377F9"/>
<path style="mix-blend-mode:multiply" d="M28.749 8.90662C29.1471 8.89142 29.5445 8.94749 29.9146 9.07108C29.9289 9.05499 29.9371 9.03569 29.9382 9.01566C29.9382 8.85299 29.3564 8.7207 28.6378 8.7207C27.9192 8.7207 27.3374 8.85299 27.3374 9.01566C27.3374 9.06214 27.3887 9.10683 27.4743 9.14616C27.5855 9.0103 28.1074 8.90662 28.749 8.90662Z" fill="#5288F9"/>
<path d="M41.5766 14.4729C42.179 14.4729 42.6674 14.3624 42.6674 14.2262C42.6674 14.0899 42.179 13.9795 41.5766 13.9795C40.9742 13.9795 40.4858 14.0899 40.4858 14.2262C40.4858 14.3624 40.9742 14.4729 41.5766 14.4729Z" fill="#4377F9"/>
<g style="mix-blend-mode:multiply">
<path d="M41.6707 14.135C42.0038 14.1226 42.3363 14.1695 42.646 14.2727C42.659 14.2595 42.6665 14.2432 42.6674 14.2262C42.6674 14.0903 42.1776 13.9795 41.5766 13.9795C40.9756 13.9795 40.4858 14.0903 40.4858 14.2262C40.4858 14.2655 40.5265 14.3031 40.5992 14.3352C40.6976 14.2208 41.1489 14.135 41.6707 14.135Z" fill="#163FF3"/>
</g>
<path d="M8.95256 13.7311C8.95256 13.8687 8.46492 13.9796 7.86178 13.9796C7.25864 13.9796 6.771 13.8687 6.771 13.7311C6.771 13.5934 7.26078 13.4844 7.86178 13.4844C8.46278 13.4844 8.95256 13.5952 8.95256 13.7311Z" fill="#4377F9"/>
<g style="mix-blend-mode:multiply">
<path d="M7.95588 13.6417C8.28977 13.628 8.62324 13.6749 8.93331 13.7793C8.94542 13.7652 8.95213 13.7484 8.95256 13.7311C8.95256 13.5952 8.46492 13.4844 7.86178 13.4844C7.25864 13.4844 6.771 13.5952 6.771 13.7311C6.771 13.7704 6.81377 13.8079 6.88649 13.8419C6.98274 13.7275 7.42547 13.6417 7.95588 13.6417Z" fill="#163FF3"/>
</g>
<path d="M46.6869 10.7809C46.6869 10.9167 46.1993 11.0276 45.5962 11.0276C44.993 11.0276 44.5054 10.9167 44.5054 10.7809C44.5054 10.645 44.993 10.5342 45.5962 10.5342C46.1993 10.5342 46.6869 10.6379 46.6869 10.7809Z" fill="#4377F9"/>
<g style="mix-blend-mode:multiply">
<path d="M45.6903 10.6856C46.0241 10.6723 46.3575 10.7192 46.6677 10.8233C46.6798 10.8092 46.6865 10.7924 46.6869 10.775C46.6869 10.6392 46.1993 10.5283 45.5962 10.5283C44.993 10.5283 44.5054 10.6392 44.5054 10.775C44.5054 10.8143 44.5481 10.8519 44.6187 10.8841C44.7171 10.7714 45.1598 10.6856 45.6903 10.6856Z" fill="#163FF3"/>
</g>
<path d="M18.9431 15.8608C18.9431 16.2827 17.4331 16.6241 15.5681 16.6241C13.703 16.6241 12.1909 16.2827 12.1909 15.8608C12.1909 15.4389 13.703 15.0957 15.5681 15.0957C17.4331 15.0957 18.9431 15.43 18.9431 15.8608Z" fill="url(#paint2_radial_506_30984)"/>
<path d="M19.6403 9.57124C21.5055 9.57124 23.0175 9.22869 23.0175 8.80613C23.0175 8.38357 21.5055 8.04102 19.6403 8.04102C17.7752 8.04102 16.2632 8.38357 16.2632 8.80613C16.2632 9.22869 17.7752 9.57124 19.6403 9.57124Z" fill="url(#paint3_radial_506_30984)"/>
<path d="M29.5939 16.2072C32.332 16.2072 34.5516 15.7046 34.5516 15.0846C34.5516 14.4645 32.332 13.9619 29.5939 13.9619C26.8559 13.9619 24.6362 14.4645 24.6362 15.0846C24.6362 15.7046 26.8559 16.2072 29.5939 16.2072Z" fill="url(#paint4_radial_506_30984)"/>
<path d="M38.0959 9.92594C40.834 9.92594 43.0536 9.42332 43.0536 8.8033C43.0536 8.18329 40.834 7.68066 38.0959 7.68066C35.3578 7.68066 33.1382 8.18329 33.1382 8.8033C33.1382 9.42332 35.3578 9.92594 38.0959 9.92594Z" fill="url(#paint5_radial_506_30984)"/>
<path d="M4.64465 11.3594C6.67399 11.3594 8.31909 10.9865 8.31909 10.5264C8.31909 10.0663 6.67399 9.69336 4.64465 9.69336C2.61532 9.69336 0.970215 10.0663 0.970215 10.5264C0.970215 10.9865 2.61532 11.3594 4.64465 11.3594Z" fill="url(#paint6_radial_506_30984)"/>
<path d="M34.4757 14.4566C34.4629 14.5192 34.4651 14.6854 34.4522 14.7855C34.4116 15.0769 35.188 15.118 35.5045 15.0698C35.5879 15.0543 35.6612 15.0131 35.71 14.9545C35.7587 14.8959 35.7793 14.8241 35.7676 14.7534C35.7676 14.7105 35.7633 14.6694 35.7547 14.63C35.4895 12.3311 35.1131 6.40686 38.5993 0.716797C34.3667 6.66965 34.6041 13.3358 34.4757 14.4566Z" fill="url(#paint7_linear_506_30984)"/>
<path d="M7.70054 12.2371C7.68557 12.2996 7.68771 12.4677 7.67488 12.5678C7.63424 12.8574 8.41062 12.8985 8.72716 12.8502C8.81079 12.8351 8.88444 12.7941 8.93327 12.7353C8.98209 12.6766 9.00245 12.6046 8.99023 12.5338C8.99023 12.4909 8.98595 12.4498 8.9774 12.4105C8.71219 10.1116 8.33576 4.1873 11.822 -1.50098C7.59146 4.45545 7.82673 11.1162 7.70054 12.2371Z" fill="url(#paint8_linear_506_30984)"/>
<path d="M13.4662 13.1423C13.4512 13.2049 13.4533 13.3712 13.4405 13.473C13.3999 13.7626 14.1762 13.8038 14.4928 13.7555C14.5764 13.7404 14.6501 13.6993 14.6989 13.6406C14.7477 13.5819 14.7681 13.5099 14.7559 13.4391C14.7559 13.3962 14.7559 13.3551 14.743 13.3157C14.4778 11.0168 14.1014 5.09258 17.5876 -0.595703C13.3571 5.36072 13.5924 12.0304 13.4662 13.1423Z" fill="url(#paint9_linear_506_30984)"/>
<path d="M41.6027 12.2371C41.5899 12.2996 41.592 12.4677 41.5771 12.5678C41.5386 12.8574 42.3149 12.8985 42.6315 12.8502C42.7149 12.8347 42.7882 12.7936 42.837 12.735C42.8857 12.6763 42.9063 12.6045 42.8946 12.5338C42.8946 12.4909 42.8903 12.4498 42.8817 12.4105C42.6165 10.1116 42.2401 4.1873 45.7263 -1.50098C41.4937 4.45545 41.7311 11.1162 41.6027 12.2371Z" fill="url(#paint10_linear_506_30984)"/>
<path d="M6.71627 52.3127C4.65234 51.4618 4.22458 49.2737 4.60315 47.5486C4.79564 46.3813 5.39878 45.3141 5.76023 44.1879C6.27166 42.4943 6.13172 40.7092 5.36028 39.0859C5.35674 39.0781 5.357 39.0694 5.36099 39.0617C5.36499 39.0541 5.3724 39.048 5.38166 39.0448C5.39077 39.0417 5.40094 39.0417 5.41008 39.0447C5.41923 39.0477 5.42666 39.0535 5.43086 39.0609C6.25281 40.6942 6.43985 42.502 5.96555 44.229C5.63832 45.3552 5.06085 46.4296 4.89616 47.5862C4.59459 49.1825 4.97316 51.2044 6.87026 51.9802C6.89756 51.988 6.92269 52.0004 6.94412 52.0166C6.96555 52.0327 6.98284 52.0524 6.99495 52.0743C7.00707 52.0962 7.01375 52.1199 7.0146 52.144C7.01545 52.1681 7.01046 52.1921 6.99991 52.2146C6.98936 52.237 6.97349 52.2575 6.95324 52.2747C6.93299 52.2919 6.90878 52.3055 6.88208 52.3146C6.85538 52.3238 6.82673 52.3284 6.79787 52.328C6.769 52.3277 6.74052 52.3225 6.71413 52.3127H6.71627Z" fill="#5E73DB"/>
<path d="M8.98329 41.7577C9.12284 42.8521 8.74608 43.9488 7.93315 44.8146C7.65751 45.0942 7.34465 45.3467 7.00063 45.5671C6.34048 46.0139 5.76379 46.5405 5.2896 47.1295C4.86185 47.6962 4.50895 48.4238 4.77202 49.0852C4.77908 49.0964 4.78325 49.1086 4.78424 49.1212C4.78524 49.1338 4.78304 49.1464 4.77778 49.1582C4.77253 49.17 4.76435 49.1808 4.75377 49.1898C4.74319 49.1988 4.73046 49.2058 4.71641 49.2104C4.47687 49.2765 4.48114 48.7009 4.479 48.5918C4.57311 47.2833 5.7858 46.2679 6.9215 45.4778C7.25938 45.2625 7.56781 45.0167 7.84118 44.7448C8.64759 43.9034 9.03106 42.8329 8.91057 41.7595C8.9099 41.7524 8.91237 41.7454 8.9175 41.7398C8.92263 41.7342 8.93007 41.7304 8.93838 41.7291C8.94655 41.7286 8.95465 41.7307 8.96102 41.735C8.96738 41.7393 8.97153 41.7455 8.9726 41.7523L8.98329 41.7577Z" fill="#5E73DB"/>
<path d="M2.58117 37.482C2.26677 40.0992 3.29339 42.9058 5.78722 44.5951C5.89416 44.663 5.76369 44.8042 5.65889 44.7256C4.58573 43.9567 3.7501 42.9829 3.22281 41.8868C2.5627 40.484 2.3276 38.9666 2.5384 37.4695C2.5384 37.4648 2.54065 37.4602 2.54466 37.4569C2.54867 37.4535 2.55411 37.4517 2.55979 37.4517C2.56546 37.4517 2.5709 37.4535 2.57491 37.4569C2.57892 37.4602 2.58117 37.4648 2.58117 37.4695V37.482Z" fill="#5E73DB"/>
<path d="M4.12627 38.0171C4.46482 38.6871 4.654 39.4032 4.6845 40.1301C4.69584 40.5024 4.56196 40.8677 4.30307 41.1708C4.04418 41.474 3.67434 41.6985 3.24937 41.8105C3.17879 41.8266 3.14671 41.7336 3.21943 41.7193C3.62779 41.6176 3.9854 41.4074 4.23816 41.1207C4.49092 40.834 4.62508 40.4862 4.62033 40.1301C4.63744 39.415 4.3594 38.6463 4.12627 38.0171Z" fill="#5E73DB"/>
<path d="M10.5714 38.8693C9.36088 39.0731 8.0883 39.5844 7.50655 40.5426C7.11943 41.2719 7.07879 42.1014 6.71306 42.8415C6.57618 43.1025 6.43716 43.3778 6.08853 43.5083C6.07563 43.5126 6.06182 43.5147 6.04791 43.5145C6.03401 43.5144 6.02029 43.5119 6.00755 43.5072C5.99481 43.5025 5.9833 43.4958 5.97371 43.4874C5.96411 43.479 5.95661 43.4691 5.95165 43.4582C5.94621 43.447 5.94357 43.4349 5.94387 43.4228C5.94418 43.4107 5.94743 43.3987 5.95343 43.3877C5.95943 43.3767 5.96806 43.3668 5.97878 43.3586C5.98951 43.3504 6.00211 43.3442 6.01581 43.3402C6.27675 43.258 6.42646 42.9916 6.54196 42.7825C6.93763 42.0531 7.00393 41.229 7.4103 40.5014C8.03055 39.5308 9.32238 39.0266 10.5672 38.8354C10.5704 38.8345 10.5738 38.8343 10.5771 38.8347C10.5805 38.8351 10.5836 38.8362 10.5864 38.8379C10.5891 38.8395 10.5913 38.8417 10.5929 38.8442C10.5944 38.8467 10.5952 38.8495 10.5952 38.8523C10.5952 38.8552 10.5944 38.858 10.5929 38.8605C10.5913 38.863 10.5891 38.8652 10.5864 38.8668C10.5836 38.8685 10.5805 38.8696 10.5771 38.87C10.5738 38.8704 10.5704 38.8702 10.5672 38.8693H10.5714Z" fill="#5E73DB"/>
<path d="M1.73392 43.8155C1.80236 45.344 3.25674 46.4541 4.92071 46.8849C4.93335 46.8883 4.94507 46.8938 4.95518 46.901C4.9653 46.9082 4.97363 46.9169 4.97969 46.9268C4.98574 46.9367 4.98941 46.9475 4.99049 46.9585C4.99156 46.9696 4.99002 46.9807 4.98595 46.9913C4.98187 47.0019 4.97535 47.0116 4.96675 47.0201C4.95815 47.0286 4.94764 47.0355 4.93583 47.0406C4.92401 47.0456 4.91112 47.0487 4.89788 47.0496C4.88464 47.0505 4.87133 47.0492 4.85869 47.0458C3.60322 46.6793 2.41833 45.9732 1.92427 44.9006C1.75189 44.5555 1.6604 44.1859 1.65479 43.812C1.65479 43.7691 1.7382 43.7691 1.73392 43.812V43.8155Z" fill="#5E73DB"/>
<path d="M3.69026 44.1726C3.81645 44.8965 3.07215 45.3256 2.29363 45.4096C2.2825 45.4118 2.27095 45.412 2.25973 45.4102C2.24851 45.4083 2.23787 45.4046 2.22851 45.3991C2.21915 45.3936 2.21127 45.3866 2.2054 45.3784C2.19953 45.3702 2.19579 45.361 2.19443 45.3515C2.19307 45.3421 2.19411 45.3324 2.1975 45.3233C2.20088 45.3142 2.20653 45.3058 2.21408 45.2986C2.22162 45.2914 2.23089 45.2857 2.24129 45.2817C2.25168 45.2777 2.26295 45.2756 2.27438 45.2755C3.00371 45.2308 3.72234 44.8644 3.64748 44.1779C3.64748 44.1547 3.68812 44.1475 3.69026 44.1779V44.1726Z" fill="#5E73DB"/>
<path d="M7.95821 42.6828C7.44918 43.4962 6.80326 44.3435 5.74457 44.7082C5.73712 44.7106 5.7292 44.7117 5.72125 44.7114C5.7133 44.7112 5.70547 44.7097 5.69822 44.707C5.69097 44.7042 5.68444 44.7003 5.679 44.6955C5.67356 44.6906 5.66931 44.6849 5.6665 44.6787C5.66369 44.6725 5.66237 44.6659 5.66263 44.6592C5.66288 44.6526 5.6647 44.646 5.66798 44.64C5.67125 44.6339 5.67593 44.6285 5.68173 44.6239C5.68753 44.6194 5.69435 44.6158 5.70179 44.6135C6.72627 44.2828 7.39785 43.4426 7.90688 42.6631C7.92185 42.6363 7.97532 42.6632 7.95821 42.6828Z" fill="#5E73DB"/>
<path d="M8.51254 46.5767C7.55223 47.4544 6.21762 48.132 4.76325 48.1498C4.75324 48.1503 4.74322 48.1491 4.73378 48.1463C4.72434 48.1435 4.71567 48.1391 4.70829 48.1334C4.70091 48.1278 4.69497 48.1209 4.69082 48.1133C4.68666 48.1057 4.68438 48.0974 4.68411 48.0891C4.68383 48.0806 4.68554 48.0722 4.68915 48.0643C4.69276 48.0564 4.69819 48.0492 4.70514 48.043C4.71209 48.0369 4.72043 48.0319 4.72966 48.0285C4.7389 48.025 4.74886 48.0231 4.75897 48.0229C6.1834 48.0372 7.51159 47.3919 8.48046 46.5535C8.49757 46.5338 8.53393 46.5535 8.51254 46.5767Z" fill="#5E73DB"/>
<path d="M13.1407 39.0862C11.5302 41.1437 11.0939 43.734 11.5131 46.1456C11.5944 46.6818 11.8147 47.4219 11.9687 47.9457C12.3225 49.1542 12.56 50.3845 12.6788 51.6247C12.7384 52.2504 12.7455 52.8788 12.7001 53.5053C12.6973 53.5288 12.689 53.5515 12.6757 53.5723C12.6623 53.5931 12.6442 53.6115 12.6224 53.6265C12.6005 53.6414 12.5754 53.6526 12.5484 53.6594C12.5213 53.6662 12.493 53.6685 12.4649 53.6662C12.4368 53.6638 12.4095 53.6569 12.3847 53.6457C12.3598 53.6346 12.3378 53.6194 12.3199 53.6012C12.302 53.5829 12.2886 53.5619 12.2805 53.5393C12.2723 53.5167 12.2696 53.493 12.2724 53.4695C12.3226 52.863 12.3226 52.2544 12.2724 51.6479C12.1749 50.4231 11.9654 49.2064 11.6457 48.0083C11.5024 47.472 11.295 46.7212 11.218 46.1795C10.9207 44.3311 11.1174 42.3987 11.9901 40.6718C12.2709 40.0962 12.6435 39.555 13.098 39.0629C13.1193 39.0415 13.1643 39.0629 13.1407 39.0915V39.0862Z" fill="#FF0069"/>
<path d="M6.80453 43.0319C7.66004 43.3644 8.45353 43.8882 8.8599 44.614C9.12939 45.0931 9.10586 45.6472 9.40743 46.1102C9.83519 46.8253 10.8041 47.0917 11.6981 47.2007C11.7264 47.2045 11.7518 47.2176 11.7687 47.237C11.7855 47.2564 11.7924 47.2807 11.7879 47.3044C11.7834 47.3281 11.7677 47.3493 11.7445 47.3634C11.7212 47.3775 11.6922 47.3833 11.6638 47.3795C10.7442 47.249 9.70686 46.9254 9.2791 46.1639C8.98395 45.6848 9.02459 45.1288 8.76793 44.648C8.38509 43.9329 7.61299 43.4055 6.78314 43.0659C6.75747 43.0659 6.77244 43.0194 6.80239 43.0319H6.80453Z" fill="#FF0069"/>
<path d="M15.248 43.0412C15.7421 43.9458 15.6758 45.1006 14.8203 45.8478C13.9198 46.5629 12.5874 46.5504 11.4496 46.654C11.435 46.6561 11.4202 46.6556 11.4059 46.6527C11.3916 46.6498 11.3782 46.6445 11.3664 46.6372C11.3546 46.6299 11.3447 46.6206 11.3373 46.61C11.3299 46.5994 11.3252 46.5876 11.3234 46.5754C11.3204 46.5519 11.3286 46.5284 11.3462 46.51C11.3638 46.4916 11.3894 46.4798 11.4175 46.4771C12.004 46.4549 12.5887 46.4065 13.1691 46.3323C15.1903 46.1249 15.9153 44.5303 15.1882 43.0609C15.171 43.0341 15.2266 43.0108 15.2416 43.0412H15.248Z" fill="#FF0069"/>
<path d="M6.80142 40.5591C6.58754 41.5619 7.21421 42.5523 8.43545 42.7865C9.58826 42.9831 10.7411 43.5015 11.3207 44.3953C11.3343 44.4162 11.3374 44.4407 11.3294 44.4635C11.3214 44.4863 11.3029 44.5055 11.2779 44.5169C11.2529 44.5283 11.2236 44.5309 11.1963 44.5242C11.169 44.5175 11.1461 44.502 11.1325 44.4812C10.5978 43.6034 9.5241 43.1011 8.40337 42.8723C8.11549 42.8078 7.84564 42.6965 7.60927 42.5447C7.3729 42.393 7.17465 42.2038 7.02586 41.9879C6.87707 41.7721 6.78066 41.5338 6.74215 41.2868C6.70364 41.0398 6.72378 40.7889 6.80142 40.5483V40.5591Z" fill="#FF0069"/>
<path d="M7.53715 45.3981C6.49128 46.56 7.99485 47.4467 9.22893 47.8007C10.555 48.1689 11.65 49.0073 12.3708 49.9995C12.3851 50.02 12.3893 50.0443 12.3826 50.0673C12.3758 50.0903 12.3585 50.1103 12.3344 50.1228C12.322 50.1291 12.3082 50.1333 12.2939 50.135C12.2795 50.1367 12.2649 50.1359 12.2509 50.1327C12.2369 50.1295 12.2238 50.124 12.2124 50.1165C12.201 50.1089 12.1916 50.0995 12.1847 50.0889C11.8232 49.6146 11.3825 49.186 10.8758 48.8161C10.3691 48.4453 9.78461 48.1562 9.15193 47.9634C8.26006 47.6398 7.06875 47.1142 7.0987 46.1757C7.13044 45.8821 7.27615 45.6053 7.51362 45.3874C7.5169 45.3857 7.52076 45.385 7.52457 45.3854C7.52839 45.3857 7.53194 45.3872 7.53465 45.3894C7.53737 45.3917 7.5391 45.3947 7.53955 45.3979C7.54 45.4011 7.53916 45.4043 7.53715 45.407V45.3981Z" fill="#FF0069"/>
<path d="M17.9332 47.2886C17.7578 48.413 16.4018 49.0923 15.172 49.2872C13.8288 49.5053 12.7124 49.7162 12.5221 51.0141C12.5181 51.0378 12.503 51.0592 12.4801 51.0736C12.4573 51.088 12.4285 51.0942 12.4001 51.0909C12.3718 51.0876 12.3462 51.075 12.3289 51.0559C12.3117 51.0368 12.3042 51.0127 12.3082 50.989C12.3473 50.7135 12.4428 50.4456 12.5905 50.1971C13.245 49.1352 14.8747 49.2854 16.0126 48.8993C16.8681 48.6204 17.6573 48.0644 17.9011 47.2904C17.9011 47.2815 17.9225 47.2815 17.9203 47.2904L17.9332 47.2886Z" fill="#FF0069"/>
<path d="M44.4054 52.7577C42.2666 51.5063 41.8988 48.8767 41.9694 46.8584C41.9865 45.936 42.5361 45.0869 42.8249 44.2342C43.3703 42.4841 43.1264 40.6428 42.9104 38.8713C42.9091 38.8665 42.909 38.8616 42.9102 38.8568C42.9115 38.8521 42.914 38.8476 42.9176 38.8438C42.9212 38.84 42.9258 38.8369 42.931 38.8348C42.9363 38.8326 42.942 38.8315 42.9478 38.8315C42.9537 38.8315 42.9594 38.8326 42.9647 38.8348C42.9699 38.8369 42.9745 38.84 42.9781 38.8438C42.9817 38.8476 42.9842 38.8521 42.9855 38.8568C42.9867 38.8616 42.9866 38.8665 42.9853 38.8713C43.1967 40.0595 43.2996 41.2595 43.2933 42.4608C43.281 43.0695 43.1871 43.6752 43.0131 44.2664C42.8377 44.8599 42.5169 45.4122 42.3522 45.9843C41.9244 47.8667 42.4613 50.8663 44.2194 52.1981C44.3424 52.2935 44.478 52.3768 44.6236 52.4466C44.648 52.4584 44.6695 52.474 44.6867 52.4927C44.7039 52.5113 44.7165 52.5326 44.7238 52.5554C44.7312 52.5781 44.7331 52.6018 44.7295 52.6252C44.7259 52.6486 44.7168 52.6711 44.7027 52.6915C44.6887 52.7119 44.67 52.7299 44.6476 52.7442C44.6253 52.7586 44.5998 52.7692 44.5726 52.7753C44.5454 52.7815 44.517 52.7831 44.4891 52.78C44.4611 52.777 44.4341 52.7694 44.4097 52.7577H44.4054Z" fill="#5E73DB"/>
<path d="M46.684 42.2337C45.6018 43.4243 44.8618 44.9009 44.9195 46.4132C44.9195 47.8737 44.4918 49.774 42.6075 50.3139C42.5935 50.3162 42.579 50.3162 42.5649 50.3139C42.5509 50.3116 42.5375 50.307 42.5256 50.3003C42.5137 50.2937 42.5035 50.2852 42.4955 50.2752C42.4875 50.2653 42.482 50.2541 42.4792 50.2424C42.4764 50.2306 42.4763 50.2185 42.4791 50.2068C42.4819 50.1951 42.4874 50.1839 42.4954 50.1739C42.5033 50.164 42.5135 50.1554 42.5254 50.1488C42.5373 50.1421 42.5507 50.1375 42.5647 50.1351C44.3335 49.6256 44.7655 47.8112 44.7805 46.4079C44.7703 45.6422 44.9403 44.8823 45.281 44.1715C45.6129 43.4604 46.0699 42.7946 46.637 42.1962C46.6605 42.1712 46.7118 42.1962 46.684 42.2302V42.2337Z" fill="#5E73DB"/>
<path d="M38.9554 40.1613C37.762 42.2028 39.4645 44.0941 41.5327 45.131L42.4246 45.5546C42.4372 45.5595 42.4485 45.5666 42.4577 45.5753C42.4669 45.5841 42.4738 45.5943 42.478 45.6054C42.4823 45.6165 42.4837 45.6282 42.4822 45.6398C42.4807 45.6513 42.4764 45.6625 42.4695 45.6726C42.456 45.6922 42.4339 45.7065 42.4079 45.7126C42.3818 45.7186 42.354 45.7158 42.3304 45.7048L41.4343 45.2597C40.0056 44.4785 38.6261 43.329 38.5042 41.8292C38.4491 41.2458 38.5929 40.6613 38.9191 40.1434C38.9341 40.1238 38.9726 40.1434 38.9554 40.1613Z" fill="#5E73DB"/>
<path d="M42.3496 39.9C40.4119 39.9841 39.1628 41.5089 39.5072 43.0534C39.634 43.54 39.8955 43.9949 40.2707 44.3817C40.2808 44.3906 40.2864 44.4024 40.2864 44.4147C40.2864 44.427 40.2808 44.4388 40.2707 44.4478C40.2645 44.4516 40.2575 44.4543 40.2501 44.4559C40.2427 44.4574 40.2349 44.4577 40.2274 44.4567C40.2198 44.4557 40.2126 44.4534 40.206 44.45C40.1995 44.4467 40.1939 44.4423 40.1894 44.4371C39.8122 44.0363 39.5522 43.5674 39.4302 43.0677C39.2312 42.0756 39.6697 40.9601 40.6685 40.3684C41.1664 40.0775 41.7516 39.9084 42.3582 39.8804C42.3604 39.8812 42.3624 39.8826 42.3638 39.8843C42.3651 39.8861 42.3659 39.8881 42.3659 39.8902C42.3659 39.8923 42.3651 39.8943 42.3638 39.8961C42.3624 39.8978 42.3604 39.8992 42.3582 39.9H42.3496Z" fill="#5E73DB"/>
<path d="M45.5153 39.0784C45.7348 39.8887 45.731 40.7301 45.5042 41.539C45.2775 42.348 44.8337 43.1032 44.2063 43.7477C43.7786 44.1785 43.3786 44.654 42.7605 44.9079C42.7472 44.9118 42.733 44.9134 42.7189 44.9127C42.7048 44.912 42.691 44.909 42.6783 44.9039C42.6656 44.8987 42.6543 44.8915 42.6449 44.8827C42.6355 44.8739 42.6283 44.8636 42.6236 44.8525C42.619 44.8413 42.617 44.8295 42.6179 44.8177C42.6187 44.8059 42.6223 44.7944 42.6284 44.7838C42.6346 44.7732 42.6432 44.7637 42.6537 44.7558C42.6643 44.748 42.6766 44.7419 42.6899 44.7381C43.2546 44.5128 43.6716 44.0552 44.0759 43.6655C44.4938 43.2501 44.8427 42.7895 45.1132 42.2961C45.6042 41.2799 45.7298 40.1659 45.4746 39.0909C45.4743 39.0867 45.4757 39.0826 45.4786 39.0792C45.4815 39.0759 45.4857 39.0734 45.4905 39.0724C45.4953 39.0713 45.5004 39.0717 45.505 39.0734C45.5095 39.0752 45.5131 39.0782 45.5153 39.082V39.0784Z" fill="#5E73DB"/>
<path d="M39.4362 44.2719C39.2031 45.7824 39.9923 47.3949 41.7782 47.9455L42.1097 48.0563C42.1236 48.0593 42.1365 48.0647 42.1477 48.0721C42.1589 48.0796 42.168 48.089 42.1745 48.0997C42.1809 48.1103 42.1846 48.122 42.1853 48.134C42.1859 48.1459 42.1835 48.1578 42.1782 48.1689C42.1735 48.1795 42.1663 48.1892 42.1569 48.1973C42.1476 48.2054 42.1364 48.2119 42.1239 48.2162C42.1115 48.2206 42.0981 48.2228 42.0847 48.2226C42.0712 48.2225 42.0579 48.22 42.0456 48.2154L41.7012 48.0956C41.0685 47.8749 40.5179 47.5169 40.1062 47.0586C39.6944 46.6004 39.4366 46.0586 39.3593 45.4893C39.2898 45.0819 39.2898 44.6685 39.3593 44.2611C39.3601 44.2569 39.3619 44.2529 39.3646 44.2492C39.3673 44.2456 39.3709 44.2425 39.3751 44.24C39.3792 44.2375 39.384 44.2357 39.3889 44.2347C39.3939 44.2338 39.3991 44.2336 39.4042 44.2343C39.4092 44.235 39.4141 44.2366 39.4184 44.2388C39.4228 44.2411 39.4265 44.2441 39.4295 44.2475C39.4325 44.251 39.4346 44.255 39.4358 44.2591C39.4369 44.2633 39.4371 44.2676 39.4362 44.2719Z" fill="#5E73DB"/>
<path d="M42.2421 43.405C42.3015 43.7144 42.2225 44.0313 42.0201 44.2951C41.8177 44.5589 41.5061 44.7511 41.1449 44.8351C41.0422 44.8583 40.931 44.8726 40.8347 44.8923C40.8138 44.896 40.7919 44.8926 40.7738 44.8829C40.7558 44.8732 40.7431 44.8579 40.7385 44.8404C40.7363 44.8316 40.7363 44.8225 40.7383 44.8137C40.7404 44.8049 40.7445 44.7965 40.7505 44.789C40.7564 44.7815 40.7641 44.7751 40.7731 44.7701C40.782 44.7651 40.7921 44.7617 40.8027 44.76C41.003 44.7554 41.2 44.716 41.3811 44.6444C41.5622 44.5727 41.7234 44.4703 41.8546 44.3436C41.9858 44.217 42.084 44.069 42.1429 43.9089C42.2019 43.7488 42.2204 43.5803 42.1972 43.4139C42.1972 43.3889 42.2399 43.3835 42.2421 43.4139V43.405Z" fill="#5E73DB"/>
<path d="M47.4556 43.8995C46.4397 44.0497 45.3617 44.5127 44.9981 45.3672C44.9917 45.3794 44.9799 45.389 44.9651 45.3941C44.9503 45.3992 44.9338 45.3993 44.9189 45.3945C44.9041 45.3897 44.892 45.3802 44.8852 45.3681C44.8785 45.3561 44.8775 45.3423 44.8826 45.3296C45.2826 44.4519 46.3948 43.9907 47.4492 43.853C47.4566 43.853 47.4636 43.8555 47.4689 43.8598C47.4741 43.8642 47.477 43.8701 47.477 43.8763C47.477 43.8824 47.4741 43.8883 47.4689 43.8927C47.4636 43.8971 47.4566 43.8995 47.4492 43.8995H47.4556Z" fill="#5E73DB"/>
<path d="M46.5491 45.8976C46.7095 46.9702 46.1213 47.864 44.7289 47.864C44.7179 47.8656 44.7066 47.8651 44.6958 47.8626C44.685 47.8601 44.675 47.8557 44.6664 47.8497C44.6579 47.8436 44.651 47.8361 44.6463 47.8276C44.6416 47.8191 44.6392 47.8099 44.6392 47.8005C44.6392 47.7912 44.6416 47.7819 44.6463 47.7735C44.651 47.765 44.6579 47.7574 44.6664 47.7514C44.675 47.7454 44.685 47.741 44.6958 47.7385C44.7066 47.736 44.7179 47.7355 44.7289 47.7371C46.0678 47.7764 46.6132 46.9237 46.502 45.903C46.5035 45.899 46.5065 45.8955 46.5105 45.893C46.5146 45.8905 46.5194 45.8892 46.5245 45.8892C46.5295 45.8892 46.5344 45.8905 46.5384 45.893C46.5424 45.8955 46.5454 45.899 46.5469 45.903L46.5491 45.8976Z" fill="#5E73DB"/>
<path d="M35.3443 39.182C36.9035 41.2717 37.9301 43.8012 37.4403 46.2896C37.3668 46.5966 37.2747 46.9003 37.1644 47.1996C36.6652 48.6666 36.6071 50.2141 36.9955 51.7044C37.1405 52.2943 37.3643 52.8688 37.6628 53.417C37.6808 53.4379 37.6932 53.4618 37.6992 53.4871C37.7052 53.5124 37.7045 53.5384 37.6973 53.5635C37.6901 53.5885 37.6764 53.612 37.6574 53.6322C37.6383 53.6525 37.6142 53.669 37.5867 53.6808C37.5593 53.6925 37.5291 53.6991 37.4983 53.7002C37.4675 53.7013 37.4368 53.6968 37.4082 53.687C37.3797 53.6772 37.354 53.6624 37.333 53.6436C37.312 53.6247 37.296 53.6023 37.2863 53.5779C36.9743 53.0007 36.7425 52.3955 36.5955 51.7741C36.2901 50.5404 36.285 49.268 36.5805 48.0326C36.7089 47.4248 36.9933 46.8384 37.1388 46.245C37.5516 44.4448 37.0275 42.5678 36.2298 40.882C35.9618 40.3089 35.6503 39.7506 35.2973 39.2106C35.2802 39.1891 35.3251 39.1623 35.3443 39.1873V39.182Z" fill="#FF0069"/>
<path d="M37.9281 39.0883C37.5328 39.8297 37.496 40.6702 37.8254 41.4337C38.3515 42.3722 38.2061 42.989 37.3976 43.7577C37.3802 43.7746 37.3558 43.7856 37.3293 43.7883C37.3027 43.7909 37.2759 43.7852 37.2542 43.7722C37.2324 43.7592 37.2173 43.7398 37.2118 43.7179C37.2063 43.696 37.2108 43.6732 37.2244 43.654C37.9687 42.8889 38.097 42.3901 37.6372 41.4856C37.4811 41.0897 37.4245 40.6713 37.4709 40.2563C37.5173 39.8413 37.6656 39.4389 37.9067 39.074C37.9067 39.0615 37.943 39.074 37.9323 39.0865L37.9281 39.0883Z" fill="#FF0069"/>
<path d="M31.1005 44.422C32.1698 44.3165 33.8937 44.3791 34.0199 45.5286C34.0199 45.9397 33.9322 46.3741 34.2167 46.7334C34.7813 47.4378 35.902 47.5593 36.8367 47.7131C36.865 47.7168 36.8904 47.7299 36.9073 47.7493C36.9241 47.7688 36.9311 47.793 36.9265 47.8167C36.922 47.8404 36.9064 47.8617 36.8831 47.8758C36.8598 47.8898 36.8308 47.8956 36.8025 47.8918C36.1269 47.8051 35.4708 47.634 34.8562 47.3841C32.9313 46.4903 34.8326 45.2622 33.0767 44.6276C32.4441 44.4436 31.7684 44.3873 31.1047 44.4631C31.0769 44.4631 31.0684 44.4274 31.1047 44.4256L31.1005 44.422Z" fill="#FF0069"/>
<path d="M41.5091 44.4621C39.7981 44.4496 38.2432 45.347 37.3364 46.5179C37.3286 46.5278 37.3187 46.5363 37.307 46.5429C37.2954 46.5496 37.2823 46.5542 37.2685 46.5566C37.2547 46.559 37.2404 46.5591 37.2266 46.5569C37.2127 46.5547 37.1995 46.5503 37.1877 46.5438C37.1759 46.5374 37.1658 46.529 37.1578 46.5193C37.1499 46.5096 37.1443 46.4986 37.1414 46.4871C37.1385 46.4755 37.1384 46.4637 37.141 46.4521C37.1437 46.4405 37.149 46.4295 37.1567 46.4196C37.901 45.5365 38.9683 44.8107 40.2366 44.5408C40.6537 44.4426 41.0868 44.4004 41.5198 44.4157C41.5272 44.4157 41.5343 44.4181 41.5395 44.4225C41.5447 44.4268 41.5476 44.4327 41.5476 44.4389C41.5476 44.4451 41.5447 44.451 41.5395 44.4553C41.5343 44.4597 41.5272 44.4621 41.5198 44.4621H41.5091Z" fill="#FF0069"/>
<path d="M32.3828 40.5571C32.1861 41.4384 31.8246 43.1367 32.8576 43.7141C33.0193 43.7885 33.2013 43.8267 33.3859 43.8249C34.165 43.789 34.9463 43.8492 35.7044 44.0037C36.4658 44.1682 37.24 44.54 37.533 45.1943C37.5382 45.2052 37.5408 45.2169 37.5406 45.2286C37.5404 45.2404 37.5375 45.252 37.5319 45.2628C37.5264 45.2735 37.5183 45.2833 37.5082 45.2915C37.4981 45.2997 37.4862 45.3061 37.4731 45.3105C37.4598 45.3147 37.4456 45.3167 37.4313 45.3163C37.4171 45.3159 37.4031 45.3131 37.3901 45.3081C37.3772 45.3031 37.3655 45.296 37.3559 45.2872C37.3463 45.2784 37.3389 45.2681 37.3341 45.2568C37.0775 44.658 36.3674 44.3058 35.6595 44.136C34.917 43.9747 34.1504 43.9043 33.3838 43.9268C33.18 43.9245 32.9804 43.8783 32.8042 43.7928C31.7455 43.1975 32.1283 41.4188 32.3764 40.5607L32.3828 40.5571Z" fill="#FF0069"/>
<path d="M31.0958 45.8185C30.4071 47.935 33.348 49.3937 35.5145 49.5832C35.8512 49.6134 36.191 49.6086 36.5262 49.5689C36.5546 49.5651 36.5836 49.5709 36.6068 49.585C36.6301 49.5991 36.6457 49.6203 36.6502 49.644C36.6548 49.6677 36.6479 49.692 36.631 49.7114C36.6142 49.7308 36.5888 49.7439 36.5604 49.7477C34.5692 50.0123 32.1182 49.0326 31.1921 47.5221C31.0352 47.2585 30.9432 46.9712 30.9215 46.6774C30.8998 46.3835 30.9489 46.089 31.0659 45.8113C31.0661 45.8091 31.067 45.8069 31.0685 45.805C31.0699 45.8031 31.0719 45.8015 31.0742 45.8003C31.0765 45.7992 31.0791 45.7985 31.0818 45.7984C31.0845 45.7982 31.0872 45.7986 31.0896 45.7995C31.0921 45.8004 31.0943 45.8017 31.096 45.8035C31.0978 45.8052 31.099 45.8073 31.0996 45.8095C31.1002 45.8116 31.1002 45.8139 31.0995 45.8161C31.0988 45.8183 31.0976 45.8203 31.0958 45.822V45.8185Z" fill="#FF0069"/>
<path d="M42.3607 47.123C40.8508 47.3161 39.7621 48.2582 39.9247 49.5667C40.0701 50.2567 39.5889 50.8181 38.8553 51.1059C38.1901 51.3919 37.4715 51.5206 36.7935 51.7119C36.7794 51.7156 36.7646 51.717 36.7499 51.716C36.7353 51.715 36.7209 51.7116 36.7078 51.7059C36.6947 51.7003 36.6831 51.6925 36.6735 51.6831C36.664 51.6737 36.6568 51.6628 36.6523 51.6511C36.6478 51.6394 36.6461 51.627 36.6474 51.6147C36.6486 51.6024 36.6527 51.5905 36.6594 51.5795C36.6662 51.5686 36.6755 51.5588 36.6867 51.5509C36.698 51.5429 36.711 51.5369 36.725 51.5331C37.4159 51.3329 38.1217 51.1953 38.7505 50.9289C40.2134 50.3068 39.4734 49.6507 39.8199 48.6425C40.1 47.7308 41.317 47.098 42.3458 47.1141L42.3607 47.123Z" fill="#FF0069"/>
<path d="M-1.13363 19.3638C-1.13363 19.3638 -1.13363 23.5379 -1.16357 23.958C5.0881 23.5558 10.3859 23.2322 14.9201 25.7206C16.8578 26.7843 18.4363 28.6649 18.3422 31.4768C17.97 31.4357 17.6128 31.4 17.2728 31.3696C16.6904 31.3154 16.1049 31.2873 15.519 31.2856C13.902 31.2856 12.5247 31.5215 11.421 31.9881C10.3517 32.4386 9.5218 33.2949 9.34429 34.119C9.28109 34.4026 9.30185 34.6949 9.40473 34.9704C9.50762 35.2458 9.68952 35.496 9.93459 35.6992C10.1448 35.9051 10.4054 36.0709 10.6986 36.1856C10.9919 36.3003 11.3112 36.3612 11.6349 36.3643C12.7792 36.3643 14.0967 35.6492 15.9874 34.3978C16.6492 33.9302 17.3583 33.5115 18.1069 33.1465C17.9593 33.7533 17.7606 34.3507 17.5123 34.9341C16.1007 38.2752 13.6625 40.7619 16.552 44.1637C17.4289 45.1934 19.5313 45.8906 21.5931 45.8084C25.0729 45.6707 26.2428 43.4111 26.0375 40.7887C25.8792 38.7722 24.2089 36.9023 24.1126 34.8108C24.8788 35.1705 25.5856 35.6122 26.215 36.1247C27.6651 37.2974 28.803 37.8426 29.7975 37.8426C30.1038 37.8425 30.4065 37.7873 30.6851 37.6809C30.9637 37.5745 31.2117 37.4193 31.4123 37.2259C31.6265 37.0474 31.7853 36.8279 31.8751 36.5865C31.965 36.3451 31.983 36.089 31.9277 35.8405C31.7759 35.1254 31.0615 34.3978 30.1504 34.0117C28.9206 33.4933 27.37 33.2967 25.428 33.159C25.0323 33.1304 24.7008 33.109 24.412 33.0929C25.167 31.1729 28.1506 26.509 39.683 25.3792C43.7873 24.977 47.2222 28.0392 51.2025 26.021L51.6003 25.8154V19.3638H-1.13363Z" fill="url(#paint11_linear_506_30984)"/>
<path d="M17.842 32.6729C17.0509 33.0542 16.3022 33.4939 15.6048 33.9868C12.9249 35.7476 11.5411 36.3626 10.4055 35.3418C10.228 35.1977 10.0961 35.0191 10.0214 34.8219C9.94678 34.6248 9.93176 34.4152 9.9777 34.212C10.121 33.5524 10.8332 32.8302 11.7208 32.4566C13.096 31.8738 14.9461 31.695 17.2196 31.8917C17.934 31.956 19.7348 31.99 20.5305 32.0919C20.6695 32.0919 20.7208 32.4584 20.1669 32.3529C19.2921 32.1849 18.135 32.5478 17.842 32.6729Z" fill="url(#paint12_linear_506_30984)"/>
<path d="M26.6537 35.773C28.6813 37.4122 30.0137 37.7072 30.9526 36.8634C31.0996 36.7442 31.2091 36.5965 31.2714 36.4334C31.3337 36.2703 31.3469 36.0969 31.3098 35.9285C31.1922 35.3922 30.5997 34.7862 29.8683 34.4769C28.7304 33.996 27.2611 33.8101 25.3768 33.6761C23.238 33.5259 22.8509 33.5938 22.2777 33.5688C21.8863 33.5259 21.8778 33.7815 22.2777 33.8244C23.4455 33.9531 25.2571 34.645 26.6537 35.773Z" fill="url(#paint13_linear_506_30984)"/>
<path d="M48.8078 17.7202H0.471191V20.8093H48.8078V17.7202Z" fill="#9FBFFF"/>
<g opacity="0.57">
<path d="M23.768 38.0732C23.4151 37.3581 23.0836 36.6913 22.9788 35.9655C22.6323 33.5737 22.2067 25.9029 23.3039 17.7173H21.272C21.225 17.9801 21.18 18.2536 21.1351 18.5181C20.5919 21.7073 19.9545 29.3495 19.7321 32.5547C19.6166 34.2011 19.5182 35.6241 18.7696 37.1204C18.5771 37.5047 18.3419 37.8855 18.1002 38.2913C17.4329 39.3925 16.7399 40.533 16.8169 41.8129C16.8811 42.7997 17.5227 43.5416 18.4916 43.7507C18.6762 43.7893 18.8659 43.808 19.0562 43.8061C19.2316 43.8061 19.4006 43.7936 19.5653 43.7811C19.7299 43.7686 19.8625 43.7597 20.0037 43.7597H20.1128C20.72 43.8174 21.3138 43.9493 21.8751 44.1512C22.1389 44.2384 22.4193 44.285 22.7029 44.2888C23.5306 44.2888 24.1572 43.824 24.4139 43.0124C24.8197 41.7583 24.7698 40.4316 24.2706 39.2012C24.1358 38.8168 23.9476 38.4396 23.768 38.0732Z" fill="url(#paint14_linear_506_30984)"/>
</g>
<path d="M32.9435 -4.28467C20.9513 4.43724 21.8026 30.7102 22.5683 36.007C22.7372 37.1779 23.458 38.2094 23.8943 39.3142C24.3656 40.4789 24.4132 41.7343 24.0312 42.9216C23.751 43.7779 23.0516 44.1479 22.0336 43.8262C21.4326 43.6093 20.7959 43.4694 20.145 43.4114C19.6296 43.3882 19.1184 43.5223 18.6072 43.4114C17.7196 43.2202 17.294 42.5176 17.2469 41.8026C17.14 40.1704 18.4361 38.7135 19.1719 37.2637C19.9461 35.7121 20.0488 34.2462 20.1643 32.5801C20.3781 29.3802 21.0198 21.7524 21.5652 18.5775C22.8228 11.2053 25.0086 2.04001 31.5512 -3.23175C31.9917 -3.60715 32.4601 -3.95574 32.9435 -4.28467Z" fill="url(#paint15_linear_506_30984)"/>
<path opacity="0.57" d="M37.2433 23.7509C38.0489 23.7509 38.702 23.6021 38.702 23.4184C38.702 23.2348 38.0489 23.0859 37.2433 23.0859C36.4377 23.0859 35.7847 23.2348 35.7847 23.4184C35.7847 23.6021 36.4377 23.7509 37.2433 23.7509Z" fill="#BED4FF"/>
<path opacity="0.57" d="M26.0871 23.7509C26.8927 23.7509 27.5457 23.6021 27.5457 23.4184C27.5457 23.2348 26.8927 23.0859 26.0871 23.0859C25.2815 23.0859 24.6284 23.2348 24.6284 23.4184C24.6284 23.6021 25.2815 23.7509 26.0871 23.7509Z" fill="#BED4FF"/>
<path opacity="0.57" d="M26.2977 28.4516C26.2977 28.6304 25.656 28.7841 24.839 28.7841C24.022 28.7841 23.3804 28.634 23.3804 28.4516C23.3804 28.2693 24.022 28.1191 24.839 28.1191C25.656 28.1191 26.2977 28.2693 26.2977 28.4516Z" fill="#BED4FF"/>
<path opacity="0.57" d="M29.5874 26.3278C30.6434 26.3278 31.4994 26.1333 31.4994 25.8934C31.4994 25.6535 30.6434 25.459 29.5874 25.459C28.5314 25.459 27.6753 25.6535 27.6753 25.8934C27.6753 26.1333 28.5314 26.3278 29.5874 26.3278Z" fill="#BED4FF"/>
<path opacity="0.57" d="M17.2298 24.2978C18.3473 24.2978 19.2531 24.0921 19.2531 23.8383C19.2531 23.5846 18.3473 23.3789 17.2298 23.3789C16.1124 23.3789 15.2065 23.5846 15.2065 23.8383C15.2065 24.0921 16.1124 24.2978 17.2298 24.2978Z" fill="#BED4FF"/>
<path opacity="0.57" d="M6.78852 22.1786C6.78852 22.343 6.20463 22.4753 5.48386 22.4753C4.76309 22.4753 4.1792 22.343 4.1792 22.1786C4.1792 22.0141 4.76309 21.8818 5.48386 21.8818C6.20463 21.8818 6.78852 22.0141 6.78852 22.1786Z" fill="#BED4FF"/>
<path opacity="0.57" d="M13.8294 22.4367C13.8294 22.6155 13.2113 22.7513 12.4478 22.7513C11.6842 22.7513 11.064 22.6101 11.064 22.4367C11.064 22.2633 11.6842 22.1221 12.4478 22.1221C13.2113 22.1221 13.8294 22.2633 13.8294 22.4367Z" fill="#BED4FF"/>
<path opacity="0.57" d="M19.9981 27.0999C19.9981 27.2268 19.5489 27.3287 18.995 27.3287C18.441 27.3287 17.9897 27.2268 17.9897 27.0999C17.9897 26.973 18.4389 26.8711 18.995 26.8711C19.5511 26.8711 19.9981 26.973 19.9981 27.0999Z" fill="#BED4FF"/>
<path opacity="0.57" d="M46.6379 24.2525C46.6379 24.4831 45.8166 24.669 44.8071 24.669C43.7976 24.669 42.9741 24.4902 42.9741 24.2525C42.9741 24.0147 43.7954 23.8359 44.8071 23.8359C45.8187 23.8359 46.6379 24.0219 46.6379 24.2525Z" fill="#BED4FF"/>
</g>
<defs>
<linearGradient id="paint0_linear_506_30984" x1="11.5147" y1="54.1582" x2="8.90919" y2="17.0695" gradientUnits="userSpaceOnUse">
<stop stop-color="#BBD1FF"/>
<stop offset="1" stop-color="#DAE6FF"/>
</linearGradient>
<linearGradient id="paint1_linear_506_30984" x1="11.5015" y1="16.8242" x2="11.3364" y2="7.4657" gradientUnits="userSpaceOnUse">
<stop stop-color="#BBD1FF"/>
<stop offset="1" stop-color="#DAE6FF"/>
</linearGradient>
<radialGradient id="paint2_radial_506_30984" cx="0" cy="0" r="1" gradientUnits="userSpaceOnUse" gradientTransform="translate(15.7006 15.7991) rotate(-90) scale(0.772736 3.37571)">
<stop stop-color="#447FF8"/>
<stop offset="1" stop-color="#D6E4FF" stop-opacity="0"/>
</radialGradient>
<radialGradient id="paint3_radial_506_30984" cx="0" cy="0" r="1" gradientUnits="userSpaceOnUse" gradientTransform="translate(19.7739 8.74521) rotate(-90) scale(0.773639 3.37678)">
<stop stop-color="#447FF8"/>
<stop offset="1" stop-color="#D6E4FF" stop-opacity="0"/>
</radialGradient>
<radialGradient id="paint4_radial_506_30984" cx="0" cy="0" r="1" gradientUnits="userSpaceOnUse" gradientTransform="translate(29.7901 14.9952) rotate(-90) scale(1.13515 4.95717)">
<stop stop-color="#447FF8"/>
<stop offset="1" stop-color="#D6E4FF" stop-opacity="0"/>
</radialGradient>
<radialGradient id="paint5_radial_506_30984" cx="0" cy="0" r="1" gradientUnits="userSpaceOnUse" gradientTransform="translate(38.292 8.71392) rotate(-90) scale(1.13515 4.95717)">
<stop stop-color="#447FF8"/>
<stop offset="1" stop-color="#D6E4FF" stop-opacity="0"/>
</radialGradient>
<radialGradient id="paint6_radial_506_30984" cx="0" cy="0" r="1" gradientUnits="userSpaceOnUse" gradientTransform="translate(4.79001 10.4601) rotate(-90) scale(0.842327 3.67404)">
<stop stop-color="#447FF8"/>
<stop offset="1" stop-color="#D6E4FF" stop-opacity="0"/>
</radialGradient>
<linearGradient id="paint7_linear_506_30984" x1="37.9469" y1="4.18714" x2="32.5211" y2="15.7592" gradientUnits="userSpaceOnUse">
<stop offset="0.0104167" stop-color="#7DA7FF"/>
<stop offset="1" stop-color="#2669F3"/>
</linearGradient>
<linearGradient id="paint8_linear_506_30984" x1="11.1696" y1="1.96894" x2="5.74489" y2="13.5401" gradientUnits="userSpaceOnUse">
<stop offset="0.0104167" stop-color="#7DA7FF"/>
<stop offset="1" stop-color="#2669F3"/>
</linearGradient>
<linearGradient id="paint9_linear_506_30984" x1="16.9352" y1="2.87422" x2="11.5105" y2="14.4454" gradientUnits="userSpaceOnUse">
<stop offset="0.0104167" stop-color="#7DA7FF"/>
<stop offset="1" stop-color="#2669F3"/>
</linearGradient>
<linearGradient id="paint10_linear_506_30984" x1="45.0736" y1="1.96894" x2="39.6506" y2="13.5421" gradientUnits="userSpaceOnUse">
<stop offset="0.0104167" stop-color="#7DA7FF"/>
<stop offset="1" stop-color="#2669F3"/>
</linearGradient>
<linearGradient id="paint11_linear_506_30984" x1="-1.16357" y1="32.5887" x2="51.5982" y2="32.5887" gradientUnits="userSpaceOnUse">
<stop stop-color="#BCD2FF"/>
<stop offset="1" stop-color="#3574F6"/>
</linearGradient>
<linearGradient id="paint12_linear_506_30984" x1="9.95166" y1="33.8252" x2="20.6221" y2="33.8252" gradientUnits="userSpaceOnUse">
<stop stop-color="#BCD2FF"/>
<stop offset="1" stop-color="#3574F6"/>
</linearGradient>
<linearGradient id="paint13_linear_506_30984" x1="32.4409" y1="37.6884" x2="23.045" y2="32.6921" gradientUnits="userSpaceOnUse">
<stop stop-color="#BCD2FF"/>
<stop offset="1" stop-color="#3574F6"/>
</linearGradient>
<linearGradient id="paint14_linear_506_30984" x1="23.4471" y1="24.1342" x2="13.5828" y2="45.7302" gradientUnits="userSpaceOnUse">
<stop offset="0.0104167" stop-color="#7DA7FF"/>
<stop offset="1" stop-color="#2669F3"/>
</linearGradient>
<linearGradient id="paint15_linear_506_30984" x1="30.4741" y1="7.36171" x2="13.6823" y2="47.754" gradientUnits="userSpaceOnUse">
<stop offset="0.0104167" stop-color="#7DA7FF"/>
<stop offset="1" stop-color="#2669F3"/>
</linearGradient>
</defs>
</svg>
